<?xml version="1.0" encoding="utf-8" standalone="no"?>
<!DOCTYPE svg PUBLIC "-//W3C//DTD SVG 1.1//EN"
  "http://www.w3.org/Graphics/SVG/1.1/DTD/svg11.dtd">
<svg xmlns:xlink="http://www.w3.org/1999/xlink" width="541.41775pt" height="368.851261pt" viewBox="0 0 541.41775 368.851261" xmlns="http://www.w3.org/2000/svg" version="1.1">
 <metadata>
  <rdf:RDF xmlns:dc="http://purl.org/dc/elements/1.1/" xmlns:cc="http://creativecommons.org/ns#" xmlns:rdf="http://www.w3.org/1999/02/22-rdf-syntax-ns#">
   <cc:Work>
    <dc:type rdf:resource="http://purl.org/dc/dcmitype/StillImage"/>
    <dc:date>2026-04-30T17:12:35.316438</dc:date>
    <dc:format>image/svg+xml</dc:format>
    <dc:creator>
     <cc:Agent>
      <dc:title>Matplotlib v3.10.9, https://matplotlib.org/</dc:title>
     </cc:Agent>
    </dc:creator>
   </cc:Work>
  </rdf:RDF>
 </metadata>
 <defs>
  <style type="text/css">*{stroke-linejoin: round; stroke-linecap: butt}</style>
 </defs>
 <g id="figure_1">
  <g id="patch_1">
   <path d="M 0 368.851261 
L 541.41775 368.851261 
L 541.41775 0 
L 0 0 
z
" style="fill: #ffffff"/>
  </g>
  <g id="patch_2">
   <path d="M 36.3625 357.9975 
L 369.0025 357.9975 
L 369.0025 25.3575 
L 36.3625 25.3575 
z
" style="fill: #ffffff"/>
  </g>
  <g id="pane3d_1">
   <g id="patch_3">
    <path d="M 61.479114 275.979136 
L 171.327706 183.901869 
L 169.800705 51.109989 
L 54.695292 135.108676 
" style="fill: #f2f2f2; opacity: 0.5; stroke: #f2f2f2; stroke-linejoin: miter"/>
   </g>
  </g>
  <g id="pane3d_2">
   <g id="patch_4">
    <path d="M 171.327706 183.901869 
L 347.595501 235.135958 
L 353.885877 97.770214 
L 169.800705 51.109989 
" style="fill: #e6e6e6; opacity: 0.5; stroke: #e6e6e6; stroke-linejoin: miter"/>
   </g>
  </g>
  <g id="pane3d_3">
   <g id="patch_5">
    <path d="M 61.479114 275.979136 
L 248.331586 337.005153 
L 347.595501 235.135958 
L 171.327706 183.901869 
" style="fill: #ececec; opacity: 0.5; stroke: #ececec; stroke-linejoin: miter"/>
   </g>
  </g>
  <g id="grid3d_1">
   <g id="Line3DCollection_1">
    <path d="M 65.018512 277.135104 
L 174.681099 184.876568 
L 173.295575 51.995836 
" style="fill: none; stroke: #cccccc; stroke-width: 0.8"/>
    <path d="M 93.489619 286.433767 
L 201.635546 192.711161 
L 201.397389 59.118827 
" style="fill: none; stroke: #cccccc; stroke-width: 0.8"/>
    <path d="M 122.434005 295.887004 
L 229.000857 200.665177 
L 229.94611 66.355096 
" style="fill: none; stroke: #cccccc; stroke-width: 0.8"/>
    <path d="M 151.863571 305.4987 
L 256.786497 208.741365 
L 258.952484 73.707366 
" style="fill: none; stroke: #cccccc; stroke-width: 0.8"/>
    <path d="M 181.790618 315.272873 
L 285.002227 216.942564 
L 288.427605 81.17845 
" style="fill: none; stroke: #cccccc; stroke-width: 0.8"/>
    <path d="M 212.227869 325.213679 
L 313.65811 225.271698 
L 318.382928 88.771251 
" style="fill: none; stroke: #cccccc; stroke-width: 0.8"/>
    <path d="M 243.188482 335.325415 
L 342.764527 233.731784 
L 348.830283 96.488768 
" style="fill: none; stroke: #cccccc; stroke-width: 0.8"/>
   </g>
  </g>
  <g id="grid3d_2">
   <g id="Line3DCollection_2">
    <path d="M 58.569733 132.281286 
L 65.163067 272.891174 
L 251.674799 333.574195 
" style="fill: none; stroke: #cccccc; stroke-width: 0.8"/>
    <path d="M 72.458659 122.14578 
L 78.376869 261.815103 
L 263.658258 321.276218 
" style="fill: none; stroke: #cccccc; stroke-width: 0.8"/>
    <path d="M 86.064155 112.217109 
L 91.332749 250.955227 
L 275.395439 309.230983 
" style="fill: none; stroke: #cccccc; stroke-width: 0.8"/>
    <path d="M 99.394809 102.489005 
L 104.038185 240.305279 
L 286.893857 297.430777 
" style="fill: none; stroke: #cccccc; stroke-width: 0.8"/>
    <path d="M 112.458867 92.95545 
L 116.50037 229.859228 
L 298.160724 285.8682 
" style="fill: none; stroke: #cccccc; stroke-width: 0.8"/>
    <path d="M 125.264246 83.610668 
L 128.726223 219.611276 
L 309.202964 274.536145 
" style="fill: none; stroke: #cccccc; stroke-width: 0.8"/>
    <path d="M 137.818554 74.449106 
L 140.722403 209.55584 
L 320.02723 263.427785 
" style="fill: none; stroke: #cccccc; stroke-width: 0.8"/>
    <path d="M 150.129104 65.465427 
L 152.495323 199.687545 
L 330.639912 252.536563 
" style="fill: none; stroke: #cccccc; stroke-width: 0.8"/>
    <path d="M 162.202926 56.654502 
L 164.051157 190.001216 
L 341.047154 241.856173 
" style="fill: none; stroke: #cccccc; stroke-width: 0.8"/>
   </g>
  </g>
  <g id="grid3d_3">
   <g id="Line3DCollection_3">
    <path d="M 347.997878 226.349061 
L 171.229834 175.390748 
L 61.045856 266.982264 
" style="fill: none; stroke: #cccccc; stroke-width: 0.8"/>
    <path d="M 348.800603 208.819605 
L 171.034665 158.418326 
L 60.181249 249.028123 
" style="fill: none; stroke: #cccccc; stroke-width: 0.8"/>
    <path d="M 349.612532 191.089156 
L 170.837365 141.260603 
L 59.306349 230.860261 
" style="fill: none; stroke: #cccccc; stroke-width: 0.8"/>
    <path d="M 350.433824 173.154237 
L 170.637899 123.914528 
L 58.420972 212.474839 
" style="fill: none; stroke: #cccccc; stroke-width: 0.8"/>
    <path d="M 351.264642 155.011289 
L 170.436231 106.376983 
L 57.524929 193.867927 
" style="fill: none; stroke: #cccccc; stroke-width: 0.8"/>
    <path d="M 352.105153 136.656672 
L 170.232325 88.644779 
L 56.618026 175.035497 
" style="fill: none; stroke: #cccccc; stroke-width: 0.8"/>
    <path d="M 352.955528 118.086661 
L 170.026143 70.714657 
L 55.700064 155.973424 
" style="fill: none; stroke: #cccccc; stroke-width: 0.8"/>
    <path d="M 353.815941 99.297441 
L 169.817647 52.583285 
L 54.77084 136.677483 
" style="fill: none; stroke: #cccccc; stroke-width: 0.8"/>
   </g>
  </g>
  <g id="axis3d_1">
   <g id="line2d_1">
    <path d="M 61.479114 275.979136 
L 248.331586 337.005153 
" style="fill: none; stroke: #262626; stroke-width: 1.25; stroke-linecap: round"/>
   </g>
   <g id="xtick_1">
    <g id="line2d_2">
     <path d="M 65.973273 276.331868 
L 63.104902 278.745014 
" style="fill: none; stroke: #262626; stroke-width: 0.8; stroke-linecap: round"/>
    </g>
    <g id="text_1">
     <!-- 0.05 -->
     <g style="fill: #262626" transform="translate(46.356137 300.389675) scale(0.1 -0.1)">
      <defs>
       <path id="DejaVuSerif-30" d="M 2034 219 
Q 2513 219 2750 744 
Q 2988 1269 2988 2328 
Q 2988 3391 2750 3916 
Q 2513 4441 2034 4441 
Q 1556 4441 1318 3916 
Q 1081 3391 1081 2328 
Q 1081 1269 1318 744 
Q 1556 219 2034 219 
z
M 2034 -91 
Q 1275 -91 848 546 
Q 422 1184 422 2328 
Q 422 3475 848 4112 
Q 1275 4750 2034 4750 
Q 2797 4750 3222 4112 
Q 3647 3475 3647 2328 
Q 3647 1184 3222 546 
Q 2797 -91 2034 -91 
z
" transform="scale(0.015625)"/>
       <path id="DejaVuSerif-2e" d="M 603 325 
Q 603 500 722 622 
Q 841 744 1019 744 
Q 1191 744 1312 622 
Q 1434 500 1434 325 
Q 1434 153 1312 31 
Q 1191 -91 1019 -91 
Q 841 -91 722 29 
Q 603 150 603 325 
z
" transform="scale(0.015625)"/>
       <path id="DejaVuSerif-35" d="M 3219 4666 
L 3219 4153 
L 1081 4153 
L 1081 2816 
Q 1244 2928 1461 2984 
Q 1678 3041 1947 3041 
Q 2703 3041 3140 2622 
Q 3578 2203 3578 1478 
Q 3578 738 3136 323 
Q 2694 -91 1894 -91 
Q 1572 -91 1234 -12 
Q 897 66 544 225 
L 544 1131 
L 897 1131 
Q 925 688 1179 453 
Q 1434 219 1894 219 
Q 2388 219 2653 544 
Q 2919 869 2919 1478 
Q 2919 2084 2655 2407 
Q 2391 2731 1894 2731 
Q 1613 2731 1398 2631 
Q 1184 2531 1019 2322 
L 750 2322 
L 750 4666 
L 3219 4666 
z
" transform="scale(0.015625)"/>
      </defs>
      <use xlink:href="#DejaVuSerif-30"/>
      <use xlink:href="#DejaVuSerif-2e" transform="translate(63.623047 0)"/>
      <use xlink:href="#DejaVuSerif-30" transform="translate(95.410156 0)"/>
      <use xlink:href="#DejaVuSerif-35" transform="translate(159.033203 0)"/>
     </g>
    </g>
   </g>
   <g id="xtick_2">
    <g id="line2d_3">
     <path d="M 94.431805 285.61724 
L 91.60118 288.070347 
" style="fill: none; stroke: #262626; stroke-width: 0.8; stroke-linecap: round"/>
    </g>
    <g id="text_2">
     <!-- 0.10 -->
     <g style="fill: #262626" transform="translate(74.850104 309.845576) scale(0.1 -0.1)">
      <defs>
       <path id="DejaVuSerif-31" d="M 909 0 
L 909 331 
L 1722 331 
L 1722 4213 
L 781 3603 
L 781 4013 
L 1919 4750 
L 2350 4750 
L 2350 331 
L 3163 331 
L 3163 0 
L 909 0 
z
" transform="scale(0.015625)"/>
      </defs>
      <use xlink:href="#DejaVuSerif-30"/>
      <use xlink:href="#DejaVuSerif-2e" transform="translate(63.623047 0)"/>
      <use xlink:href="#DejaVuSerif-31" transform="translate(95.410156 0)"/>
      <use xlink:href="#DejaVuSerif-30" transform="translate(159.033203 0)"/>
     </g>
    </g>
   </g>
   <g id="xtick_3">
    <g id="line2d_4">
     <path d="M 123.363064 295.056851 
L 120.571843 297.550921 
" style="fill: none; stroke: #262626; stroke-width: 0.8; stroke-linecap: round"/>
    </g>
    <g id="text_3">
     <!-- 0.15 -->
     <g style="fill: #262626" transform="translate(103.819158 319.459138) scale(0.1 -0.1)">
      <use xlink:href="#DejaVuSerif-30"/>
      <use xlink:href="#DejaVuSerif-2e" transform="translate(63.623047 0)"/>
      <use xlink:href="#DejaVuSerif-31" transform="translate(95.410156 0)"/>
      <use xlink:href="#DejaVuSerif-35" transform="translate(159.033203 0)"/>
     </g>
    </g>
   </g>
   <g id="xtick_4">
    <g id="line2d_5">
     <path d="M 152.778929 304.654579 
L 150.028837 307.190646 
" style="fill: none; stroke: #262626; stroke-width: 0.8; stroke-linecap: round"/>
    </g>
    <g id="text_4">
     <!-- 0.20 -->
     <g style="fill: #262626" transform="translate(133.27528 329.234337) scale(0.1 -0.1)">
      <defs>
       <path id="DejaVuSerif-32" d="M 819 3553 
L 469 3553 
L 469 4384 
Q 803 4563 1142 4656 
Q 1481 4750 1806 4750 
Q 2534 4750 2956 4397 
Q 3378 4044 3378 3438 
Q 3378 2753 2422 1800 
Q 2347 1728 2309 1691 
L 1131 513 
L 3078 513 
L 3078 1088 
L 3444 1088 
L 3444 0 
L 434 0 
L 434 341 
L 1850 1753 
Q 2319 2222 2519 2614 
Q 2719 3006 2719 3438 
Q 2719 3909 2473 4175 
Q 2228 4441 1797 4441 
Q 1350 4441 1106 4219 
Q 863 3997 819 3553 
z
" transform="scale(0.015625)"/>
      </defs>
      <use xlink:href="#DejaVuSerif-30"/>
      <use xlink:href="#DejaVuSerif-2e" transform="translate(63.623047 0)"/>
      <use xlink:href="#DejaVuSerif-32" transform="translate(95.410156 0)"/>
      <use xlink:href="#DejaVuSerif-30" transform="translate(159.033203 0)"/>
     </g>
    </g>
   </g>
   <g id="xtick_5">
    <g id="line2d_6">
     <path d="M 182.691678 314.414428 
L 179.98451 316.993563 
" style="fill: none; stroke: #262626; stroke-width: 0.8; stroke-linecap: round"/>
    </g>
    <g id="text_5">
     <!-- 0.25 -->
     <g style="fill: #262626" transform="translate(163.23086 339.175284) scale(0.1 -0.1)">
      <use xlink:href="#DejaVuSerif-30"/>
      <use xlink:href="#DejaVuSerif-2e" transform="translate(63.623047 0)"/>
      <use xlink:href="#DejaVuSerif-32" transform="translate(95.410156 0)"/>
      <use xlink:href="#DejaVuSerif-35" transform="translate(159.033203 0)"/>
     </g>
    </g>
   </g>
   <g id="xtick_6">
    <g id="line2d_7">
     <path d="M 213.114008 324.340542 
L 210.451635 326.963851 
" style="fill: none; stroke: #262626; stroke-width: 0.8; stroke-linecap: round"/>
    </g>
    <g id="text_6">
     <!-- 0.30 -->
     <g style="fill: #262626" transform="translate(193.698708 349.28623) scale(0.1 -0.1)">
      <defs>
       <path id="DejaVuSerif-33" d="M 622 4469 
Q 988 4606 1323 4678 
Q 1659 4750 1953 4750 
Q 2638 4750 3022 4454 
Q 3406 4159 3406 3634 
Q 3406 3213 3140 2930 
Q 2875 2647 2388 2547 
Q 2963 2466 3280 2130 
Q 3597 1794 3597 1259 
Q 3597 606 3158 257 
Q 2719 -91 1894 -91 
Q 1528 -91 1179 -12 
Q 831 66 488 225 
L 488 1131 
L 838 1131 
Q 869 681 1141 450 
Q 1413 219 1906 219 
Q 2384 219 2661 495 
Q 2938 772 2938 1253 
Q 2938 1803 2653 2086 
Q 2369 2369 1819 2369 
L 1522 2369 
L 1522 2688 
L 1678 2688 
Q 2225 2688 2498 2914 
Q 2772 3141 2772 3597 
Q 2772 4006 2547 4223 
Q 2322 4441 1900 4441 
Q 1478 4441 1245 4241 
Q 1013 4041 972 3647 
L 622 3647 
L 622 4469 
z
" transform="scale(0.015625)"/>
      </defs>
      <use xlink:href="#DejaVuSerif-30"/>
      <use xlink:href="#DejaVuSerif-2e" transform="translate(63.623047 0)"/>
      <use xlink:href="#DejaVuSerif-33" transform="translate(95.410156 0)"/>
      <use xlink:href="#DejaVuSerif-30" transform="translate(159.033203 0)"/>
     </g>
    </g>
   </g>
   <g id="xtick_7">
    <g id="line2d_8">
     <path d="M 244.059052 334.437206 
L 241.443423 337.105833 
" style="fill: none; stroke: #262626; stroke-width: 0.8; stroke-linecap: round"/>
    </g>
    <g id="text_7">
     <!-- 0.35 -->
     <g style="fill: #262626" transform="translate(224.692079 359.571574) scale(0.1 -0.1)">
      <use xlink:href="#DejaVuSerif-30"/>
      <use xlink:href="#DejaVuSerif-2e" transform="translate(63.623047 0)"/>
      <use xlink:href="#DejaVuSerif-33" transform="translate(95.410156 0)"/>
      <use xlink:href="#DejaVuSerif-35" transform="translate(159.033203 0)"/>
     </g>
    </g>
   </g>
   <g id="text_8">
    <!-- Final Val Energy MAE -->
    <g style="fill: #262626" transform="translate(60.486639 320.139739) rotate(-341.912962) scale(0.14 -0.14)">
     <defs>
      <path id="DejaVuSerif-46" d="M 353 0 
L 353 331 
L 947 331 
L 947 4331 
L 353 4331 
L 353 4666 
L 4172 4666 
L 4172 3628 
L 3788 3628 
L 3788 4281 
L 1581 4281 
L 1581 2719 
L 3175 2719 
L 3175 3303 
L 3559 3303 
L 3559 1753 
L 3175 1753 
L 3175 2338 
L 1581 2338 
L 1581 331 
L 2328 331 
L 2328 0 
L 353 0 
z
" transform="scale(0.015625)"/>
      <path id="DejaVuSerif-69" d="M 622 4353 
Q 622 4497 726 4603 
Q 831 4709 978 4709 
Q 1122 4709 1226 4603 
Q 1331 4497 1331 4353 
Q 1331 4206 1228 4103 
Q 1125 4000 978 4000 
Q 831 4000 726 4103 
Q 622 4206 622 4353 
z
M 1356 331 
L 1900 331 
L 1900 0 
L 231 0 
L 231 331 
L 781 331 
L 781 2988 
L 231 2988 
L 231 3322 
L 1356 3322 
L 1356 331 
z
" transform="scale(0.015625)"/>
      <path id="DejaVuSerif-6e" d="M 263 0 
L 263 331 
L 781 331 
L 781 2988 
L 231 2988 
L 231 3322 
L 1356 3322 
L 1356 2731 
Q 1516 3069 1770 3241 
Q 2025 3413 2363 3413 
Q 2913 3413 3172 3097 
Q 3431 2781 3431 2113 
L 3431 331 
L 3944 331 
L 3944 0 
L 2356 0 
L 2356 331 
L 2853 331 
L 2853 1931 
Q 2853 2541 2703 2767 
Q 2553 2994 2175 2994 
Q 1775 2994 1565 2701 
Q 1356 2409 1356 1850 
L 1356 331 
L 1856 331 
L 1856 0 
L 263 0 
z
" transform="scale(0.015625)"/>
      <path id="DejaVuSerif-61" d="M 2547 1044 
L 2547 1747 
L 1806 1747 
Q 1378 1747 1168 1562 
Q 959 1378 959 997 
Q 959 650 1171 447 
Q 1384 244 1747 244 
Q 2106 244 2326 466 
Q 2547 688 2547 1044 
z
M 3122 2075 
L 3122 331 
L 3634 331 
L 3634 0 
L 2547 0 
L 2547 359 
Q 2356 128 2106 18 
Q 1856 -91 1522 -91 
Q 969 -91 644 203 
Q 319 497 319 997 
Q 319 1513 691 1797 
Q 1063 2081 1741 2081 
L 2547 2081 
L 2547 2309 
Q 2547 2688 2317 2895 
Q 2088 3103 1672 3103 
Q 1328 3103 1125 2947 
Q 922 2791 872 2484 
L 575 2484 
L 575 3156 
Q 875 3284 1158 3348 
Q 1441 3413 1709 3413 
Q 2400 3413 2761 3070 
Q 3122 2728 3122 2075 
z
" transform="scale(0.015625)"/>
      <path id="DejaVuSerif-6c" d="M 1313 331 
L 1856 331 
L 1856 0 
L 184 0 
L 184 331 
L 738 331 
L 738 4531 
L 184 4531 
L 184 4863 
L 1313 4863 
L 1313 331 
z
" transform="scale(0.015625)"/>
      <path id="DejaVuSerif-20" transform="scale(0.015625)"/>
      <path id="DejaVuSerif-56" d="M 1119 4331 
L 2497 750 
L 3872 4331 
L 3347 4331 
L 3347 4666 
L 4716 4666 
L 4716 4331 
L 4263 4331 
L 2597 0 
L 2059 0 
L 403 4331 
L -63 4331 
L -63 4666 
L 1638 4666 
L 1638 4331 
L 1119 4331 
z
" transform="scale(0.015625)"/>
      <path id="DejaVuSerif-45" d="M 353 0 
L 353 331 
L 947 331 
L 947 4331 
L 353 4331 
L 353 4666 
L 4109 4666 
L 4109 3628 
L 3725 3628 
L 3725 4281 
L 1581 4281 
L 1581 2719 
L 3109 2719 
L 3109 3303 
L 3494 3303 
L 3494 1753 
L 3109 1753 
L 3109 2338 
L 1581 2338 
L 1581 384 
L 3775 384 
L 3775 1038 
L 4159 1038 
L 4159 0 
L 353 0 
z
" transform="scale(0.015625)"/>
      <path id="DejaVuSerif-65" d="M 3469 1600 
L 991 1600 
L 991 1575 
Q 991 903 1244 561 
Q 1497 219 1991 219 
Q 2369 219 2611 417 
Q 2853 616 2950 1006 
L 3413 1006 
Q 3275 459 2904 184 
Q 2534 -91 1931 -91 
Q 1203 -91 761 389 
Q 319 869 319 1663 
Q 319 2450 753 2931 
Q 1188 3413 1894 3413 
Q 2647 3413 3050 2948 
Q 3453 2484 3469 1600 
z
M 2791 1931 
Q 2772 2513 2545 2808 
Q 2319 3103 1894 3103 
Q 1497 3103 1269 2806 
Q 1041 2509 991 1931 
L 2791 1931 
z
" transform="scale(0.015625)"/>
      <path id="DejaVuSerif-72" d="M 3059 3328 
L 3059 2497 
L 2728 2497 
Q 2713 2744 2591 2866 
Q 2469 2988 2234 2988 
Q 1809 2988 1582 2694 
Q 1356 2400 1356 1850 
L 1356 331 
L 2022 331 
L 2022 0 
L 263 0 
L 263 331 
L 781 331 
L 781 2994 
L 231 2994 
L 231 3322 
L 1356 3322 
L 1356 2731 
Q 1525 3078 1790 3245 
Q 2056 3413 2438 3413 
Q 2578 3413 2733 3391 
Q 2888 3369 3059 3328 
z
" transform="scale(0.015625)"/>
      <path id="DejaVuSerif-67" d="M 3359 2988 
L 3359 72 
Q 3359 -644 2965 -1033 
Q 2572 -1422 1844 -1422 
Q 1516 -1422 1216 -1362 
Q 916 -1303 641 -1184 
L 641 -488 
L 941 -488 
Q 997 -813 1206 -963 
Q 1416 -1113 1806 -1113 
Q 2313 -1113 2548 -827 
Q 2784 -541 2784 72 
L 2784 519 
Q 2616 206 2355 57 
Q 2094 -91 1709 -91 
Q 1097 -91 708 395 
Q 319 881 319 1663 
Q 319 2444 706 2928 
Q 1094 3413 1709 3413 
Q 2094 3413 2355 3264 
Q 2616 3116 2784 2803 
L 2784 3322 
L 3909 3322 
L 3909 2988 
L 3359 2988 
z
M 2784 1825 
Q 2784 2422 2554 2737 
Q 2325 3053 1888 3053 
Q 1444 3053 1217 2703 
Q 991 2353 991 1663 
Q 991 975 1217 622 
Q 1444 269 1888 269 
Q 2325 269 2554 583 
Q 2784 897 2784 1497 
L 2784 1825 
z
" transform="scale(0.015625)"/>
      <path id="DejaVuSerif-79" d="M 1381 -609 
L 1600 -56 
L 359 2988 
L -19 2988 
L -19 3322 
L 1509 3322 
L 1509 2988 
L 978 2988 
L 1913 703 
L 2847 2988 
L 2350 2988 
L 2350 3322 
L 3597 3322 
L 3597 2988 
L 3225 2988 
L 1703 -750 
Q 1547 -1138 1356 -1280 
Q 1166 -1422 819 -1422 
Q 672 -1422 517 -1397 
Q 363 -1372 206 -1325 
L 206 -691 
L 500 -691 
Q 519 -903 608 -995 
Q 697 -1088 884 -1088 
Q 1056 -1088 1161 -992 
Q 1266 -897 1381 -609 
z
" transform="scale(0.015625)"/>
      <path id="DejaVuSerif-4d" d="M 353 0 
L 353 331 
L 947 331 
L 947 4331 
L 319 4331 
L 319 4666 
L 1678 4666 
L 3316 1344 
L 4953 4666 
L 6228 4666 
L 6228 4331 
L 5606 4331 
L 5606 331 
L 6203 331 
L 6203 0 
L 4378 0 
L 4378 331 
L 4972 331 
L 4972 3938 
L 3372 684 
L 2931 684 
L 1331 3938 
L 1331 331 
L 1925 331 
L 1925 0 
L 353 0 
z
" transform="scale(0.015625)"/>
      <path id="DejaVuSerif-41" d="M 1281 1691 
L 2994 1691 
L 2138 3909 
L 1281 1691 
z
M -38 0 
L -38 331 
L 372 331 
L 2034 4666 
L 2559 4666 
L 4225 331 
L 4684 331 
L 4684 0 
L 2988 0 
L 2988 331 
L 3506 331 
L 3116 1356 
L 1153 1356 
L 763 331 
L 1275 331 
L 1275 0 
L -38 0 
z
" transform="scale(0.015625)"/>
     </defs>
     <use xlink:href="#DejaVuSerif-46"/>
     <use xlink:href="#DejaVuSerif-69" transform="translate(69.384766 0)"/>
     <use xlink:href="#DejaVuSerif-6e" transform="translate(101.367188 0)"/>
     <use xlink:href="#DejaVuSerif-61" transform="translate(165.771484 0)"/>
     <use xlink:href="#DejaVuSerif-6c" transform="translate(225.390625 0)"/>
     <use xlink:href="#DejaVuSerif-20" transform="translate(257.373047 0)"/>
     <use xlink:href="#DejaVuSerif-56" transform="translate(289.160156 0)"/>
     <use xlink:href="#DejaVuSerif-61" transform="translate(352.251953 0)"/>
     <use xlink:href="#DejaVuSerif-6c" transform="translate(411.871094 0)"/>
     <use xlink:href="#DejaVuSerif-20" transform="translate(443.853516 0)"/>
     <use xlink:href="#DejaVuSerif-45" transform="translate(475.640625 0)"/>
     <use xlink:href="#DejaVuSerif-6e" transform="translate(548.638672 0)"/>
     <use xlink:href="#DejaVuSerif-65" transform="translate(613.042969 0)"/>
     <use xlink:href="#DejaVuSerif-72" transform="translate(672.222656 0)"/>
     <use xlink:href="#DejaVuSerif-67" transform="translate(720.025391 0)"/>
     <use xlink:href="#DejaVuSerif-79" transform="translate(784.039062 0)"/>
     <use xlink:href="#DejaVuSerif-20" transform="translate(840.533203 0)"/>
     <use xlink:href="#DejaVuSerif-4d" transform="translate(872.320312 0)"/>
     <use xlink:href="#DejaVuSerif-41" transform="translate(974.712891 0)"/>
     <use xlink:href="#DejaVuSerif-45" transform="translate(1046.929688 0)"/>
    </g>
   </g>
  </g>
  <g id="axis3d_2">
   <g id="line2d_9">
    <path d="M 347.595501 235.135958 
L 248.331586 337.005153 
" style="fill: none; stroke: #262626; stroke-width: 1.25; stroke-linecap: round"/>
   </g>
   <g id="xtick_8">
    <g id="line2d_10">
     <path d="M 250.102815 333.062738 
L 254.822844 334.598435 
" style="fill: none; stroke: #262626; stroke-width: 0.8; stroke-linecap: round"/>
    </g>
    <g id="text_9">
     <!-- 0.02 -->
     <g style="fill: #262626" transform="translate(253.458858 354.637192) scale(0.1 -0.1)">
      <use xlink:href="#DejaVuSerif-30"/>
      <use xlink:href="#DejaVuSerif-2e" transform="translate(63.623047 0)"/>
      <use xlink:href="#DejaVuSerif-30" transform="translate(95.410156 0)"/>
      <use xlink:href="#DejaVuSerif-32" transform="translate(159.033203 0)"/>
     </g>
    </g>
   </g>
   <g id="xtick_9">
    <g id="line2d_11">
     <path d="M 262.097467 320.775324 
L 266.783845 322.279292 
" style="fill: none; stroke: #262626; stroke-width: 0.8; stroke-linecap: round"/>
    </g>
    <g id="text_10">
     <!-- 0.03 -->
     <g style="fill: #262626" transform="translate(265.313842 342.193507) scale(0.1 -0.1)">
      <use xlink:href="#DejaVuSerif-30"/>
      <use xlink:href="#DejaVuSerif-2e" transform="translate(63.623047 0)"/>
      <use xlink:href="#DejaVuSerif-30" transform="translate(95.410156 0)"/>
      <use xlink:href="#DejaVuSerif-33" transform="translate(159.033203 0)"/>
     </g>
    </g>
   </g>
   <g id="xtick_10">
    <g id="line2d_12">
     <path d="M 273.845716 308.740328 
L 278.498822 310.213539 
" style="fill: none; stroke: #262626; stroke-width: 0.8; stroke-linecap: round"/>
    </g>
    <g id="text_11">
     <!-- 0.04 -->
     <g style="fill: #262626" transform="translate(276.925074 330.005679) scale(0.1 -0.1)">
      <defs>
       <path id="DejaVuSerif-34" d="M 2234 1581 
L 2234 4063 
L 641 1581 
L 2234 1581 
z
M 3609 0 
L 1484 0 
L 1484 331 
L 2234 331 
L 2234 1247 
L 197 1247 
L 197 1588 
L 2241 4750 
L 2859 4750 
L 2859 1581 
L 3750 1581 
L 3750 1247 
L 2859 1247 
L 2859 331 
L 3609 331 
L 3609 0 
z
" transform="scale(0.015625)"/>
      </defs>
      <use xlink:href="#DejaVuSerif-30"/>
      <use xlink:href="#DejaVuSerif-2e" transform="translate(63.623047 0)"/>
      <use xlink:href="#DejaVuSerif-30" transform="translate(95.410156 0)"/>
      <use xlink:href="#DejaVuSerif-34" transform="translate(159.033203 0)"/>
     </g>
    </g>
   </g>
   <g id="xtick_11">
    <g id="line2d_13">
     <path d="M 285.355076 296.950051 
L 289.975287 298.39344 
" style="fill: none; stroke: #262626; stroke-width: 0.8; stroke-linecap: round"/>
    </g>
    <g id="text_12">
     <!-- 0.05 -->
     <g style="fill: #262626" transform="translate(288.299995 318.065896) scale(0.1 -0.1)">
      <use xlink:href="#DejaVuSerif-30"/>
      <use xlink:href="#DejaVuSerif-2e" transform="translate(63.623047 0)"/>
      <use xlink:href="#DejaVuSerif-30" transform="translate(95.410156 0)"/>
      <use xlink:href="#DejaVuSerif-35" transform="translate(159.033203 0)"/>
     </g>
    </g>
   </g>
   <g id="xtick_12">
    <g id="line2d_14">
     <path d="M 296.632761 285.397104 
L 301.220452 286.811566 
" style="fill: none; stroke: #262626; stroke-width: 0.8; stroke-linecap: round"/>
    </g>
    <g id="text_13">
     <!-- 0.06 -->
     <g style="fill: #262626" transform="translate(299.445746 306.366663) scale(0.1 -0.1)">
      <defs>
       <path id="DejaVuSerif-36" d="M 2094 219 
Q 2534 219 2771 542 
Q 3009 866 3009 1472 
Q 3009 2078 2771 2401 
Q 2534 2725 2094 2725 
Q 1647 2725 1412 2412 
Q 1178 2100 1178 1509 
Q 1178 888 1415 553 
Q 1653 219 2094 219 
z
M 1075 2569 
Q 1288 2803 1556 2918 
Q 1825 3034 2163 3034 
Q 2859 3034 3264 2615 
Q 3669 2197 3669 1472 
Q 3669 763 3233 336 
Q 2797 -91 2069 -91 
Q 1278 -91 853 498 
Q 428 1088 428 2181 
Q 428 3406 931 4078 
Q 1434 4750 2350 4750 
Q 2597 4750 2869 4703 
Q 3141 4656 3425 4563 
L 3425 3794 
L 3072 3794 
Q 3034 4109 2831 4275 
Q 2628 4441 2284 4441 
Q 1678 4441 1381 3981 
Q 1084 3522 1075 2569 
z
" transform="scale(0.015625)"/>
      </defs>
      <use xlink:href="#DejaVuSerif-30"/>
      <use xlink:href="#DejaVuSerif-2e" transform="translate(63.623047 0)"/>
      <use xlink:href="#DejaVuSerif-30" transform="translate(95.410156 0)"/>
      <use xlink:href="#DejaVuSerif-36" transform="translate(159.033203 0)"/>
     </g>
    </g>
   </g>
   <g id="xtick_13">
    <g id="line2d_15">
     <path d="M 307.685697 274.074392 
L 312.241239 275.460789 
" style="fill: none; stroke: #262626; stroke-width: 0.8; stroke-linecap: round"/>
    </g>
    <g id="text_14">
     <!-- 0.07 -->
     <g style="fill: #262626" transform="translate(310.369184 294.900783) scale(0.1 -0.1)">
      <defs>
       <path id="DejaVuSerif-37" d="M 3609 4347 
L 1784 0 
L 1319 0 
L 3059 4153 
L 903 4153 
L 903 3578 
L 538 3578 
L 538 4666 
L 3609 4666 
L 3609 4347 
z
" transform="scale(0.015625)"/>
      </defs>
      <use xlink:href="#DejaVuSerif-30"/>
      <use xlink:href="#DejaVuSerif-2e" transform="translate(63.623047 0)"/>
      <use xlink:href="#DejaVuSerif-30" transform="translate(95.410156 0)"/>
      <use xlink:href="#DejaVuSerif-37" transform="translate(159.033203 0)"/>
     </g>
    </g>
   </g>
   <g id="xtick_14">
    <g id="line2d_16">
     <path d="M 318.520535 262.9751 
L 323.044297 264.33426 
" style="fill: none; stroke: #262626; stroke-width: 0.8; stroke-linecap: round"/>
    </g>
    <g id="text_15">
     <!-- 0.08 -->
     <g style="fill: #262626" transform="translate(321.076895 283.661343) scale(0.1 -0.1)">
      <defs>
       <path id="DejaVuSerif-38" d="M 2981 1275 
Q 2981 1775 2732 2051 
Q 2484 2328 2034 2328 
Q 1584 2328 1336 2051 
Q 1088 1775 1088 1275 
Q 1088 772 1336 495 
Q 1584 219 2034 219 
Q 2484 219 2732 495 
Q 2981 772 2981 1275 
z
M 2853 3541 
Q 2853 3966 2637 4203 
Q 2422 4441 2034 4441 
Q 1650 4441 1433 4203 
Q 1216 3966 1216 3541 
Q 1216 3113 1433 2875 
Q 1650 2638 2034 2638 
Q 2422 2638 2637 2875 
Q 2853 3113 2853 3541 
z
M 2516 2484 
Q 3047 2413 3344 2092 
Q 3641 1772 3641 1275 
Q 3641 619 3225 264 
Q 2809 -91 2034 -91 
Q 1263 -91 845 264 
Q 428 619 428 1275 
Q 428 1772 725 2092 
Q 1022 2413 1556 2484 
Q 1084 2569 832 2842 
Q 581 3116 581 3541 
Q 581 4103 968 4426 
Q 1356 4750 2034 4750 
Q 2713 4750 3100 4426 
Q 3488 4103 3488 3541 
Q 3488 3116 3236 2842 
Q 2984 2569 2516 2484 
z
" transform="scale(0.015625)"/>
      </defs>
      <use xlink:href="#DejaVuSerif-30"/>
      <use xlink:href="#DejaVuSerif-2e" transform="translate(63.623047 0)"/>
      <use xlink:href="#DejaVuSerif-30" transform="translate(95.410156 0)"/>
      <use xlink:href="#DejaVuSerif-38" transform="translate(159.033203 0)"/>
     </g>
    </g>
   </g>
   <g id="xtick_15">
    <g id="line2d_17">
     <path d="M 329.143668 252.092682 
L 333.636016 253.425398 
" style="fill: none; stroke: #262626; stroke-width: 0.8; stroke-linecap: round"/>
    </g>
    <g id="text_16">
     <!-- 0.09 -->
     <g style="fill: #262626" transform="translate(331.575207 272.641701) scale(0.1 -0.1)">
      <defs>
       <path id="DejaVuSerif-39" d="M 2994 2091 
Q 2784 1856 2512 1740 
Q 2241 1625 1900 1625 
Q 1206 1625 804 2044 
Q 403 2463 403 3188 
Q 403 3897 839 4323 
Q 1275 4750 2003 4750 
Q 2794 4750 3217 4161 
Q 3641 3572 3641 2478 
Q 3641 1253 3137 581 
Q 2634 -91 1722 -91 
Q 1475 -91 1203 -44 
Q 931 3 647 97 
L 647 872 
L 997 872 
Q 1038 556 1241 387 
Q 1444 219 1784 219 
Q 2391 219 2687 676 
Q 2984 1134 2994 2091 
z
M 1978 4441 
Q 1534 4441 1298 4117 
Q 1063 3794 1063 3188 
Q 1063 2581 1298 2256 
Q 1534 1931 1978 1931 
Q 2422 1931 2658 2245 
Q 2894 2559 2894 3150 
Q 2894 3772 2656 4106 
Q 2419 4441 1978 4441 
z
" transform="scale(0.015625)"/>
      </defs>
      <use xlink:href="#DejaVuSerif-30"/>
      <use xlink:href="#DejaVuSerif-2e" transform="translate(63.623047 0)"/>
      <use xlink:href="#DejaVuSerif-30" transform="translate(95.410156 0)"/>
      <use xlink:href="#DejaVuSerif-39" transform="translate(159.033203 0)"/>
     </g>
    </g>
   </g>
   <g id="xtick_16">
    <g id="line2d_18">
     <path d="M 339.56124 241.420841 
L 344.022538 242.727878 
" style="fill: none; stroke: #262626; stroke-width: 0.8; stroke-linecap: round"/>
    </g>
    <g id="text_17">
     <!-- 0.10 -->
     <g style="fill: #262626" transform="translate(341.870202 261.835471) scale(0.1 -0.1)">
      <use xlink:href="#DejaVuSerif-30"/>
      <use xlink:href="#DejaVuSerif-2e" transform="translate(63.623047 0)"/>
      <use xlink:href="#DejaVuSerif-31" transform="translate(95.410156 0)"/>
      <use xlink:href="#DejaVuSerif-30" transform="translate(159.033203 0)"/>
     </g>
    </g>
   </g>
   <g id="text_18">
    <!-- Final Val Forces MAE -->
    <g style="fill: #262626" transform="translate(276.499346 369.308951) rotate(-45.742112) scale(0.14 -0.14)">
     <defs>
      <path id="DejaVuSerif-6f" d="M 1925 219 
Q 2388 219 2623 584 
Q 2859 950 2859 1663 
Q 2859 2375 2623 2739 
Q 2388 3103 1925 3103 
Q 1463 3103 1227 2739 
Q 991 2375 991 1663 
Q 991 950 1228 584 
Q 1466 219 1925 219 
z
M 1925 -91 
Q 1200 -91 759 389 
Q 319 869 319 1663 
Q 319 2456 758 2934 
Q 1197 3413 1925 3413 
Q 2653 3413 3092 2934 
Q 3531 2456 3531 1663 
Q 3531 869 3092 389 
Q 2653 -91 1925 -91 
z
" transform="scale(0.015625)"/>
      <path id="DejaVuSerif-63" d="M 3291 997 
Q 3169 466 2822 187 
Q 2475 -91 1925 -91 
Q 1200 -91 759 389 
Q 319 869 319 1663 
Q 319 2459 759 2936 
Q 1200 3413 1925 3413 
Q 2241 3413 2553 3339 
Q 2866 3266 3181 3116 
L 3181 2266 
L 2847 2266 
Q 2781 2703 2561 2903 
Q 2341 3103 1931 3103 
Q 1466 3103 1228 2742 
Q 991 2381 991 1663 
Q 991 944 1227 581 
Q 1463 219 1931 219 
Q 2303 219 2525 412 
Q 2747 606 2828 997 
L 3291 997 
z
" transform="scale(0.015625)"/>
      <path id="DejaVuSerif-73" d="M 359 184 
L 359 959 
L 691 959 
Q 703 588 923 403 
Q 1144 219 1575 219 
Q 1963 219 2166 364 
Q 2369 509 2369 788 
Q 2369 1006 2220 1140 
Q 2072 1275 1594 1428 
L 1178 1569 
Q 750 1706 558 1912 
Q 366 2119 366 2438 
Q 366 2894 700 3153 
Q 1034 3413 1625 3413 
Q 1888 3413 2178 3344 
Q 2469 3275 2778 3144 
L 2778 2419 
L 2447 2419 
Q 2434 2741 2221 2922 
Q 2009 3103 1644 3103 
Q 1281 3103 1095 2975 
Q 909 2847 909 2591 
Q 909 2381 1050 2254 
Q 1191 2128 1613 1997 
L 2069 1856 
Q 2541 1709 2748 1489 
Q 2956 1269 2956 922 
Q 2956 450 2595 179 
Q 2234 -91 1600 -91 
Q 1278 -91 972 -22 
Q 666 47 359 184 
z
" transform="scale(0.015625)"/>
     </defs>
     <use xlink:href="#DejaVuSerif-46"/>
     <use xlink:href="#DejaVuSerif-69" transform="translate(69.384766 0)"/>
     <use xlink:href="#DejaVuSerif-6e" transform="translate(101.367188 0)"/>
     <use xlink:href="#DejaVuSerif-61" transform="translate(165.771484 0)"/>
     <use xlink:href="#DejaVuSerif-6c" transform="translate(225.390625 0)"/>
     <use xlink:href="#DejaVuSerif-20" transform="translate(257.373047 0)"/>
     <use xlink:href="#DejaVuSerif-56" transform="translate(289.160156 0)"/>
     <use xlink:href="#DejaVuSerif-61" transform="translate(352.251953 0)"/>
     <use xlink:href="#DejaVuSerif-6c" transform="translate(411.871094 0)"/>
     <use xlink:href="#DejaVuSerif-20" transform="translate(443.853516 0)"/>
     <use xlink:href="#DejaVuSerif-46" transform="translate(475.640625 0)"/>
     <use xlink:href="#DejaVuSerif-6f" transform="translate(539.525391 0)"/>
     <use xlink:href="#DejaVuSerif-72" transform="translate(599.730469 0)"/>
     <use xlink:href="#DejaVuSerif-63" transform="translate(647.533203 0)"/>
     <use xlink:href="#DejaVuSerif-65" transform="translate(703.539062 0)"/>
     <use xlink:href="#DejaVuSerif-73" transform="translate(762.71875 0)"/>
     <use xlink:href="#DejaVuSerif-20" transform="translate(814.037109 0)"/>
     <use xlink:href="#DejaVuSerif-4d" transform="translate(845.824219 0)"/>
     <use xlink:href="#DejaVuSerif-41" transform="translate(948.216797 0)"/>
     <use xlink:href="#DejaVuSerif-45" transform="translate(1020.433594 0)"/>
    </g>
   </g>
  </g>
  <g id="axis3d_3">
   <g id="line2d_19">
    <path d="M 347.595501 235.135958 
L 353.885877 97.770214 
" style="fill: none; stroke: #262626; stroke-width: 1.25; stroke-linecap: round"/>
   </g>
   <g id="xtick_17">
    <g id="line2d_20">
     <path d="M 346.514109 225.921323 
L 350.968957 227.205557 
" style="fill: none; stroke: #262626; stroke-width: 0.8; stroke-linecap: round"/>
    </g>
    <g id="text_19">
     <!-- 0.050 -->
     <g style="fill: #262626" transform="translate(351.994634 231.354636) scale(0.1 -0.1)">
      <use xlink:href="#DejaVuSerif-30"/>
      <use xlink:href="#DejaVuSerif-2e" transform="translate(63.623047 0)"/>
      <use xlink:href="#DejaVuSerif-30" transform="translate(95.410156 0)"/>
      <use xlink:href="#DejaVuSerif-35" transform="translate(159.033203 0)"/>
      <use xlink:href="#DejaVuSerif-30" transform="translate(222.65625 0)"/>
     </g>
    </g>
   </g>
   <g id="xtick_18">
    <g id="line2d_21">
     <path d="M 347.308058 208.39643 
L 351.789273 209.666971 
" style="fill: none; stroke: #262626; stroke-width: 0.8; stroke-linecap: round"/>
    </g>
    <g id="text_20">
     <!-- 0.075 -->
     <g style="fill: #262626" transform="translate(352.899541 213.852867) scale(0.1 -0.1)">
      <use xlink:href="#DejaVuSerif-30"/>
      <use xlink:href="#DejaVuSerif-2e" transform="translate(63.623047 0)"/>
      <use xlink:href="#DejaVuSerif-30" transform="translate(95.410156 0)"/>
      <use xlink:href="#DejaVuSerif-37" transform="translate(159.033203 0)"/>
      <use xlink:href="#DejaVuSerif-35" transform="translate(222.65625 0)"/>
     </g>
    </g>
   </g>
   <g id="xtick_19">
    <g id="line2d_22">
     <path d="M 348.111107 190.670676 
L 352.619002 191.927126 
" style="fill: none; stroke: #262626; stroke-width: 0.8; stroke-linecap: round"/>
    </g>
    <g id="text_21">
     <!-- 0.100 -->
     <g style="fill: #262626" transform="translate(353.814799 196.15091) scale(0.1 -0.1)">
      <use xlink:href="#DejaVuSerif-30"/>
      <use xlink:href="#DejaVuSerif-2e" transform="translate(63.623047 0)"/>
      <use xlink:href="#DejaVuSerif-31" transform="translate(95.410156 0)"/>
      <use xlink:href="#DejaVuSerif-30" transform="translate(159.033203 0)"/>
      <use xlink:href="#DejaVuSerif-30" transform="translate(222.65625 0)"/>
     </g>
    </g>
   </g>
   <g id="xtick_20">
    <g id="line2d_23">
     <path d="M 348.923414 172.740589 
L 353.458308 173.982535 
" style="fill: none; stroke: #262626; stroke-width: 0.8; stroke-linecap: round"/>
    </g>
    <g id="text_22">
     <!-- 0.125 -->
     <g style="fill: #262626" transform="translate(354.740585 178.245312) scale(0.1 -0.1)">
      <use xlink:href="#DejaVuSerif-30"/>
      <use xlink:href="#DejaVuSerif-2e" transform="translate(63.623047 0)"/>
      <use xlink:href="#DejaVuSerif-31" transform="translate(95.410156 0)"/>
      <use xlink:href="#DejaVuSerif-32" transform="translate(159.033203 0)"/>
      <use xlink:href="#DejaVuSerif-35" transform="translate(222.65625 0)"/>
     </g>
    </g>
   </g>
   <g id="xtick_21">
    <g id="line2d_24">
     <path d="M 349.745138 154.602614 
L 354.307357 155.829635 
" style="fill: none; stroke: #262626; stroke-width: 0.8; stroke-linecap: round"/>
    </g>
    <g id="text_23">
     <!-- 0.150 -->
     <g style="fill: #262626" transform="translate(355.677083 160.132536) scale(0.1 -0.1)">
      <use xlink:href="#DejaVuSerif-30"/>
      <use xlink:href="#DejaVuSerif-2e" transform="translate(63.623047 0)"/>
      <use xlink:href="#DejaVuSerif-31" transform="translate(95.410156 0)"/>
      <use xlink:href="#DejaVuSerif-35" transform="translate(159.033203 0)"/>
      <use xlink:href="#DejaVuSerif-30" transform="translate(222.65625 0)"/>
     </g>
    </g>
   </g>
   <g id="xtick_22">
    <g id="line2d_25">
     <path d="M 350.576446 136.253115 
L 355.16632 137.464777 
" style="fill: none; stroke: #262626; stroke-width: 0.8; stroke-linecap: round"/>
    </g>
    <g id="text_24">
     <!-- 0.175 -->
     <g style="fill: #262626" transform="translate(356.624481 141.808968) scale(0.1 -0.1)">
      <use xlink:href="#DejaVuSerif-30"/>
      <use xlink:href="#DejaVuSerif-2e" transform="translate(63.623047 0)"/>
      <use xlink:href="#DejaVuSerif-31" transform="translate(95.410156 0)"/>
      <use xlink:href="#DejaVuSerif-37" transform="translate(159.033203 0)"/>
      <use xlink:href="#DejaVuSerif-35" transform="translate(222.65625 0)"/>
     </g>
    </g>
   </g>
   <g id="xtick_23">
    <g id="line2d_26">
     <path d="M 351.417505 117.688369 
L 356.035371 118.884227 
" style="fill: none; stroke: #262626; stroke-width: 0.8; stroke-linecap: round"/>
    </g>
    <g id="text_25">
     <!-- 0.200 -->
     <g style="fill: #262626" transform="translate(357.582968 123.270905) scale(0.1 -0.1)">
      <use xlink:href="#DejaVuSerif-30"/>
      <use xlink:href="#DejaVuSerif-2e" transform="translate(63.623047 0)"/>
      <use xlink:href="#DejaVuSerif-32" transform="translate(95.410156 0)"/>
      <use xlink:href="#DejaVuSerif-30" transform="translate(159.033203 0)"/>
      <use xlink:href="#DejaVuSerif-30" transform="translate(222.65625 0)"/>
     </g>
    </g>
   </g>
   <g id="xtick_24">
    <g id="line2d_27">
     <path d="M 352.268488 98.904568 
L 356.914689 100.084163 
" style="fill: none; stroke: #262626; stroke-width: 0.8; stroke-linecap: round"/>
    </g>
    <g id="text_26">
     <!-- 0.225 -->
     <g style="fill: #262626" transform="translate(358.552741 104.514559) scale(0.1 -0.1)">
      <use xlink:href="#DejaVuSerif-30"/>
      <use xlink:href="#DejaVuSerif-2e" transform="translate(63.623047 0)"/>
      <use xlink:href="#DejaVuSerif-32" transform="translate(95.410156 0)"/>
      <use xlink:href="#DejaVuSerif-32" transform="translate(159.033203 0)"/>
      <use xlink:href="#DejaVuSerif-35" transform="translate(222.65625 0)"/>
     </g>
    </g>
   </g>
   <g id="text_27">
    <!-- Final Val Loss -->
    <g style="fill: #262626" transform="translate(392.703164 212.008681) rotate(-87.378092) scale(0.14 -0.14)">
     <defs>
      <path id="DejaVuSerif-4c" d="M 353 0 
L 353 331 
L 947 331 
L 947 4331 
L 353 4331 
L 353 4666 
L 2175 4666 
L 2175 4331 
L 1581 4331 
L 1581 384 
L 3713 384 
L 3713 1166 
L 4097 1166 
L 4097 0 
L 353 0 
z
" transform="scale(0.015625)"/>
     </defs>
     <use xlink:href="#DejaVuSerif-46"/>
     <use xlink:href="#DejaVuSerif-69" transform="translate(69.384766 0)"/>
     <use xlink:href="#DejaVuSerif-6e" transform="translate(101.367188 0)"/>
     <use xlink:href="#DejaVuSerif-61" transform="translate(165.771484 0)"/>
     <use xlink:href="#DejaVuSerif-6c" transform="translate(225.390625 0)"/>
     <use xlink:href="#DejaVuSerif-20" transform="translate(257.373047 0)"/>
     <use xlink:href="#DejaVuSerif-56" transform="translate(289.160156 0)"/>
     <use xlink:href="#DejaVuSerif-61" transform="translate(352.251953 0)"/>
     <use xlink:href="#DejaVuSerif-6c" transform="translate(411.871094 0)"/>
     <use xlink:href="#DejaVuSerif-20" transform="translate(443.853516 0)"/>
     <use xlink:href="#DejaVuSerif-4c" transform="translate(475.640625 0)"/>
     <use xlink:href="#DejaVuSerif-6f" transform="translate(542.046875 0)"/>
     <use xlink:href="#DejaVuSerif-73" transform="translate(602.251953 0)"/>
     <use xlink:href="#DejaVuSerif-73" transform="translate(653.570312 0)"/>
    </g>
   </g>
  </g>
  <g id="axes_1">
   <g id="Path3DCollection_1">
    <defs>
     <path id="m05591a39d9" d="M 0 7.071068 
C 1.875269 7.071068 3.673985 6.326016 5 5 
C 6.326016 3.673985 7.071068 1.875269 7.071068 0 
C 7.071068 -1.875269 6.326016 -3.673985 5 -5 
C 3.673985 -6.326016 1.875269 -7.071068 0 -7.071068 
C -1.875269 -7.071068 -3.673985 -6.326016 -5 -5 
C -6.326016 -3.673985 -7.071068 -1.875269 -7.071068 0 
C -7.071068 1.875269 -6.326016 3.673985 -5 5 
C -3.673985 6.326016 -1.875269 7.071068 0 7.071068 
z
" style="stroke: #94c4df"/>
    </defs>
    <g clip-path="url(#p08b1b8abfc)">
     <use xlink:href="#m05591a39d9" x="81.241923" y="262.119777" style="fill: #94c4df; stroke: #94c4df"/>
    </g>
   </g>
   <g id="Path3DCollection_2">
    <defs>
     <path id="mb11b59a5cc" d="M 0 7.071068 
C 1.875269 7.071068 3.673985 6.326016 5 5 
C 6.326016 3.673985 7.071068 1.875269 7.071068 0 
C 7.071068 -1.875269 6.326016 -3.673985 5 -5 
C 3.673985 -6.326016 1.875269 -7.071068 0 -7.071068 
C -1.875269 -7.071068 -3.673985 -6.326016 -5 -5 
C -6.326016 -3.673985 -7.071068 -1.875269 -7.071068 0 
C -7.071068 1.875269 -6.326016 3.673985 -5 5 
C -3.673985 6.326016 -1.875269 7.071068 0 7.071068 
z
" style="stroke: #ac1117"/>
    </defs>
    <g clip-path="url(#p08b1b8abfc)">
     <use xlink:href="#mb11b59a5cc" x="82.207697" y="261.529691" style="fill: #ac1117; stroke: #ac1117"/>
    </g>
   </g>
   <g id="text_28">
    <!-- Final Metrics for All Hyperparameter Variations -->
    <g style="fill: #262626" transform="translate(7.2 19.3575) scale(0.16 -0.16)">
     <defs>
      <path id="DejaVuSerif-74" d="M 691 2988 
L 184 2988 
L 184 3322 
L 691 3322 
L 691 4353 
L 1269 4353 
L 1269 3322 
L 2350 3322 
L 2350 2988 
L 1269 2988 
L 1269 878 
Q 1269 456 1350 337 
Q 1431 219 1650 219 
Q 1875 219 1978 351 
Q 2081 484 2088 781 
L 2522 781 
Q 2497 328 2275 118 
Q 2053 -91 1600 -91 
Q 1103 -91 897 129 
Q 691 350 691 878 
L 691 2988 
z
" transform="scale(0.015625)"/>
      <path id="DejaVuSerif-66" d="M 2753 4078 
L 2450 4078 
Q 2447 4313 2317 4434 
Q 2188 4556 1941 4556 
Q 1619 4556 1487 4379 
Q 1356 4203 1356 3750 
L 1356 3322 
L 2284 3322 
L 2284 2988 
L 1356 2988 
L 1356 331 
L 2094 331 
L 2094 0 
L 231 0 
L 231 331 
L 781 331 
L 781 2988 
L 231 2988 
L 231 3322 
L 781 3322 
L 781 3738 
Q 781 4294 1070 4578 
Q 1359 4863 1919 4863 
Q 2128 4863 2337 4825 
Q 2547 4788 2753 4709 
L 2753 4078 
z
" transform="scale(0.015625)"/>
      <path id="DejaVuSerif-48" d="M 353 0 
L 353 331 
L 947 331 
L 947 4331 
L 353 4331 
L 353 4666 
L 2175 4666 
L 2175 4331 
L 1581 4331 
L 1581 2719 
L 4000 2719 
L 4000 4331 
L 3406 4331 
L 3406 4666 
L 5228 4666 
L 5228 4331 
L 4634 4331 
L 4634 331 
L 5228 331 
L 5228 0 
L 3406 0 
L 3406 331 
L 4000 331 
L 4000 2338 
L 1581 2338 
L 1581 331 
L 2175 331 
L 2175 0 
L 353 0 
z
" transform="scale(0.015625)"/>
      <path id="DejaVuSerif-70" d="M 1313 1825 
L 1313 1497 
Q 1313 897 1542 583 
Q 1772 269 2209 269 
Q 2650 269 2876 622 
Q 3103 975 3103 1663 
Q 3103 2353 2876 2703 
Q 2650 3053 2209 3053 
Q 1772 3053 1542 2737 
Q 1313 2422 1313 1825 
z
M 738 2988 
L 184 2988 
L 184 3322 
L 1313 3322 
L 1313 2803 
Q 1481 3116 1742 3264 
Q 2003 3413 2388 3413 
Q 3000 3413 3387 2928 
Q 3775 2444 3775 1663 
Q 3775 881 3387 395 
Q 3000 -91 2388 -91 
Q 2003 -91 1742 57 
Q 1481 206 1313 519 
L 1313 -997 
L 1856 -997 
L 1856 -1331 
L 184 -1331 
L 184 -997 
L 738 -997 
L 738 2988 
z
" transform="scale(0.015625)"/>
      <path id="DejaVuSerif-6d" d="M 3316 2675 
Q 3481 3041 3739 3227 
Q 3997 3413 4341 3413 
Q 4863 3413 5119 3089 
Q 5375 2766 5375 2113 
L 5375 331 
L 5894 331 
L 5894 0 
L 4300 0 
L 4300 331 
L 4800 331 
L 4800 2047 
Q 4800 2556 4650 2772 
Q 4500 2988 4153 2988 
Q 3769 2988 3567 2697 
Q 3366 2406 3366 1850 
L 3366 331 
L 3866 331 
L 3866 0 
L 2291 0 
L 2291 331 
L 2791 331 
L 2791 2069 
Q 2791 2566 2641 2777 
Q 2491 2988 2144 2988 
Q 1759 2988 1557 2697 
Q 1356 2406 1356 1850 
L 1356 331 
L 1856 331 
L 1856 0 
L 263 0 
L 263 331 
L 781 331 
L 781 2994 
L 231 2994 
L 231 3322 
L 1356 3322 
L 1356 2731 
Q 1516 3063 1762 3238 
Q 2009 3413 2322 3413 
Q 2709 3413 2968 3220 
Q 3228 3028 3316 2675 
z
" transform="scale(0.015625)"/>
     </defs>
     <use xlink:href="#DejaVuSerif-46"/>
     <use xlink:href="#DejaVuSerif-69" transform="translate(69.384766 0)"/>
     <use xlink:href="#DejaVuSerif-6e" transform="translate(101.367188 0)"/>
     <use xlink:href="#DejaVuSerif-61" transform="translate(165.771484 0)"/>
     <use xlink:href="#DejaVuSerif-6c" transform="translate(225.390625 0)"/>
     <use xlink:href="#DejaVuSerif-20" transform="translate(257.373047 0)"/>
     <use xlink:href="#DejaVuSerif-4d" transform="translate(289.160156 0)"/>
     <use xlink:href="#DejaVuSerif-65" transform="translate(391.552734 0)"/>
     <use xlink:href="#DejaVuSerif-74" transform="translate(450.732422 0)"/>
     <use xlink:href="#DejaVuSerif-72" transform="translate(490.917969 0)"/>
     <use xlink:href="#DejaVuSerif-69" transform="translate(538.720703 0)"/>
     <use xlink:href="#DejaVuSerif-63" transform="translate(570.703125 0)"/>
     <use xlink:href="#DejaVuSerif-73" transform="translate(626.708984 0)"/>
     <use xlink:href="#DejaVuSerif-20" transform="translate(678.027344 0)"/>
     <use xlink:href="#DejaVuSerif-66" transform="translate(709.814453 0)"/>
     <use xlink:href="#DejaVuSerif-6f" transform="translate(746.826172 0)"/>
     <use xlink:href="#DejaVuSerif-72" transform="translate(807.03125 0)"/>
     <use xlink:href="#DejaVuSerif-20" transform="translate(854.833984 0)"/>
     <use xlink:href="#DejaVuSerif-41" transform="translate(886.621094 0)"/>
     <use xlink:href="#DejaVuSerif-6c" transform="translate(958.837891 0)"/>
     <use xlink:href="#DejaVuSerif-6c" transform="translate(990.820312 0)"/>
     <use xlink:href="#DejaVuSerif-20" transform="translate(1022.802734 0)"/>
     <use xlink:href="#DejaVuSerif-48" transform="translate(1054.589844 0)"/>
     <use xlink:href="#DejaVuSerif-79" transform="translate(1141.796875 0)"/>
     <use xlink:href="#DejaVuSerif-70" transform="translate(1198.291016 0)"/>
     <use xlink:href="#DejaVuSerif-65" transform="translate(1262.304688 0)"/>
     <use xlink:href="#DejaVuSerif-72" transform="translate(1321.484375 0)"/>
     <use xlink:href="#DejaVuSerif-70" transform="translate(1369.287109 0)"/>
     <use xlink:href="#DejaVuSerif-61" transform="translate(1433.300781 0)"/>
     <use xlink:href="#DejaVuSerif-72" transform="translate(1492.919922 0)"/>
     <use xlink:href="#DejaVuSerif-61" transform="translate(1540.722656 0)"/>
     <use xlink:href="#DejaVuSerif-6d" transform="translate(1600.341797 0)"/>
     <use xlink:href="#DejaVuSerif-65" transform="translate(1695.166016 0)"/>
     <use xlink:href="#DejaVuSerif-74" transform="translate(1754.345703 0)"/>
     <use xlink:href="#DejaVuSerif-65" transform="translate(1794.53125 0)"/>
     <use xlink:href="#DejaVuSerif-72" transform="translate(1853.710938 0)"/>
     <use xlink:href="#DejaVuSerif-20" transform="translate(1901.513672 0)"/>
     <use xlink:href="#DejaVuSerif-56" transform="translate(1933.300781 0)"/>
     <use xlink:href="#DejaVuSerif-61" transform="translate(1996.392578 0)"/>
     <use xlink:href="#DejaVuSerif-72" transform="translate(2056.011719 0)"/>
     <use xlink:href="#DejaVuSerif-69" transform="translate(2103.814453 0)"/>
     <use xlink:href="#DejaVuSerif-61" transform="translate(2135.796875 0)"/>
     <use xlink:href="#DejaVuSerif-74" transform="translate(2195.416016 0)"/>
     <use xlink:href="#DejaVuSerif-69" transform="translate(2235.601562 0)"/>
     <use xlink:href="#DejaVuSerif-6f" transform="translate(2267.583984 0)"/>
     <use xlink:href="#DejaVuSerif-6e" transform="translate(2327.789062 0)"/>
     <use xlink:href="#DejaVuSerif-73" transform="translate(2392.193359 0)"/>
    </g>
   </g>
   <g id="Path3DCollection_3">
    <defs>
     <path id="ma707fd83ca" d="M 0 7.071068 
C 1.875269 7.071068 3.673985 6.326016 5 5 
C 6.326016 3.673985 7.071068 1.875269 7.071068 0 
C 7.071068 -1.875269 6.326016 -3.673985 5 -5 
C 3.673985 -6.326016 1.875269 -7.071068 0 -7.071068 
C -1.875269 -7.071068 -3.673985 -6.326016 -5 -5 
C -6.326016 -3.673985 -7.071068 -1.875269 -7.071068 0 
C -7.071068 1.875269 -6.326016 3.673985 -5 5 
C -3.673985 6.326016 -1.875269 7.071068 0 7.071068 
z
" style="stroke: #d92523"/>
    </defs>
    <g clip-path="url(#p08b1b8abfc)">
     <use xlink:href="#ma707fd83ca" x="92.429453" y="254.860789" style="fill: #d92523; stroke: #d92523"/>
    </g>
   </g>
   <g id="Path3DCollection_4">
    <defs>
     <path id="m18ee8d3f64" d="M 0 7.071068 
C 1.875269 7.071068 3.673985 6.326016 5 5 
C 6.326016 3.673985 7.071068 1.875269 7.071068 0 
C 7.071068 -1.875269 6.326016 -3.673985 5 -5 
C 3.673985 -6.326016 1.875269 -7.071068 0 -7.071068 
C -1.875269 -7.071068 -3.673985 -6.326016 -5 -5 
C -6.326016 -3.673985 -7.071068 -1.875269 -7.071068 0 
C -7.071068 1.875269 -6.326016 3.673985 -5 5 
C -3.673985 6.326016 -1.875269 7.071068 0 7.071068 
z
" style="stroke: #2f974e"/>
    </defs>
    <g clip-path="url(#p08b1b8abfc)">
     <use xlink:href="#m18ee8d3f64" x="80.846925" y="263.157307" style="fill: #2f974e; stroke: #2f974e"/>
    </g>
   </g>
   <g id="legend_1">
    <g id="patch_6">
     <path d="M 410.6665 316.77375 
L 531.81775 316.77375 
Q 534.21775 316.77375 534.21775 314.37375 
L 534.21775 68.98125 
Q 534.21775 66.58125 531.81775 66.58125 
L 410.6665 66.58125 
Q 408.2665 66.58125 408.2665 68.98125 
L 408.2665 314.37375 
Q 408.2665 316.77375 410.6665 316.77375 
z
" style="fill: #ffffff; opacity: 0.8; stroke: #cccccc; stroke-linejoin: miter"/>
    </g>
    <g id="Path3DCollection_5">
     <defs>
      <path id="m20c3e0f849" d="M 0 7.071068 
C 1.875269 7.071068 3.673985 6.326016 5 5 
C 6.326016 3.673985 7.071068 1.875269 7.071068 0 
C 7.071068 -1.875269 6.326016 -3.673985 5 -5 
C 3.673985 -6.326016 1.875269 -7.071068 0 -7.071068 
C -1.875269 -7.071068 -3.673985 -6.326016 -5 -5 
C -6.326016 -3.673985 -7.071068 -1.875269 -7.071068 0 
C -7.071068 1.875269 -6.326016 3.673985 -5 5 
C -3.673985 6.326016 -1.875269 7.071068 0 7.071068 
z
" style="stroke: #98d594"/>
     </defs>
     <g>
      <use xlink:href="#m20c3e0f849" x="425.0665" y="77.349375" style="fill: #98d594; stroke: #98d594"/>
     </g>
    </g>
    <g id="text_29">
     <!-- 0: Arch 64-32 -->
     <g style="fill: #262626" transform="translate(446.6665 80.499375) scale(0.12 -0.12)">
      <defs>
       <path id="DejaVuSerif-3a" d="M 666 325 
Q 666 500 786 622 
Q 906 744 1081 744 
Q 1256 744 1376 622 
Q 1497 500 1497 325 
Q 1497 150 1378 29 
Q 1259 -91 1081 -91 
Q 903 -91 784 29 
Q 666 150 666 325 
z
M 666 2363 
Q 666 2538 786 2658 
Q 906 2778 1081 2778 
Q 1259 2778 1378 2659 
Q 1497 2541 1497 2363 
Q 1497 2184 1378 2065 
Q 1259 1947 1081 1947 
Q 906 1947 786 2067 
Q 666 2188 666 2363 
z
" transform="scale(0.015625)"/>
       <path id="DejaVuSerif-68" d="M 263 0 
L 263 331 
L 781 331 
L 781 4531 
L 231 4531 
L 231 4863 
L 1356 4863 
L 1356 2731 
Q 1516 3069 1770 3241 
Q 2025 3413 2363 3413 
Q 2913 3413 3172 3097 
Q 3431 2781 3431 2113 
L 3431 331 
L 3944 331 
L 3944 0 
L 2356 0 
L 2356 331 
L 2853 331 
L 2853 1931 
Q 2853 2541 2704 2764 
Q 2556 2988 2175 2988 
Q 1775 2988 1565 2697 
Q 1356 2406 1356 1850 
L 1356 331 
L 1856 331 
L 1856 0 
L 263 0 
z
" transform="scale(0.015625)"/>
       <path id="DejaVuSerif-2d" d="M 281 1959 
L 1881 1959 
L 1881 1472 
L 281 1472 
L 281 1959 
z
" transform="scale(0.015625)"/>
      </defs>
      <use xlink:href="#DejaVuSerif-30"/>
      <use xlink:href="#DejaVuSerif-3a" transform="translate(63.623047 0)"/>
      <use xlink:href="#DejaVuSerif-20" transform="translate(97.314453 0)"/>
      <use xlink:href="#DejaVuSerif-41" transform="translate(129.101562 0)"/>
      <use xlink:href="#DejaVuSerif-72" transform="translate(201.318359 0)"/>
      <use xlink:href="#DejaVuSerif-63" transform="translate(249.121094 0)"/>
      <use xlink:href="#DejaVuSerif-68" transform="translate(305.126953 0)"/>
      <use xlink:href="#DejaVuSerif-20" transform="translate(369.53125 0)"/>
      <use xlink:href="#DejaVuSerif-36" transform="translate(401.318359 0)"/>
      <use xlink:href="#DejaVuSerif-34" transform="translate(464.941406 0)"/>
      <use xlink:href="#DejaVuSerif-2d" transform="translate(528.564453 0)"/>
      <use xlink:href="#DejaVuSerif-33" transform="translate(562.353516 0)"/>
      <use xlink:href="#DejaVuSerif-32" transform="translate(625.976562 0)"/>
     </g>
    </g>
    <g id="Path3DCollection_6">
     <defs>
      <path id="m582a7a84f0" d="M 0 7.071068 
C 1.875269 7.071068 3.673985 6.326016 5 5 
C 6.326016 3.673985 7.071068 1.875269 7.071068 0 
C 7.071068 -1.875269 6.326016 -3.673985 5 -5 
C 3.673985 -6.326016 1.875269 -7.071068 0 -7.071068 
C -1.875269 -7.071068 -3.673985 -6.326016 -5 -5 
C -6.326016 -3.673985 -7.071068 -1.875269 -7.071068 0 
C -7.071068 1.875269 -6.326016 3.673985 -5 5 
C -3.673985 6.326016 -1.875269 7.071068 0 7.071068 
z
" style="stroke: #60ba6c"/>
     </defs>
     <g>
      <use xlink:href="#m582a7a84f0" x="425.0665" y="94.963125" style="fill: #60ba6c; stroke: #60ba6c"/>
     </g>
    </g>
    <g id="text_30">
     <!-- 1: Arch 32-32 -->
     <g style="fill: #262626" transform="translate(446.6665 98.113125) scale(0.12 -0.12)">
      <use xlink:href="#DejaVuSerif-31"/>
      <use xlink:href="#DejaVuSerif-3a" transform="translate(63.623047 0)"/>
      <use xlink:href="#DejaVuSerif-20" transform="translate(97.314453 0)"/>
      <use xlink:href="#DejaVuSerif-41" transform="translate(129.101562 0)"/>
      <use xlink:href="#DejaVuSerif-72" transform="translate(201.318359 0)"/>
      <use xlink:href="#DejaVuSerif-63" transform="translate(249.121094 0)"/>
      <use xlink:href="#DejaVuSerif-68" transform="translate(305.126953 0)"/>
      <use xlink:href="#DejaVuSerif-20" transform="translate(369.53125 0)"/>
      <use xlink:href="#DejaVuSerif-33" transform="translate(401.318359 0)"/>
      <use xlink:href="#DejaVuSerif-32" transform="translate(464.941406 0)"/>
      <use xlink:href="#DejaVuSerif-2d" transform="translate(528.564453 0)"/>
      <use xlink:href="#DejaVuSerif-33" transform="translate(562.353516 0)"/>
      <use xlink:href="#DejaVuSerif-32" transform="translate(625.976562 0)"/>
     </g>
    </g>
    <g id="Path3DCollection_7">
     <g>
      <use xlink:href="#m18ee8d3f64" x="425.0665" y="112.576875" style="fill: #2f974e; stroke: #2f974e"/>
     </g>
    </g>
    <g id="text_31">
     <!-- 2: Arch 32-16 -->
     <g style="fill: #262626" transform="translate(446.6665 115.726875) scale(0.12 -0.12)">
      <use xlink:href="#DejaVuSerif-32"/>
      <use xlink:href="#DejaVuSerif-3a" transform="translate(63.623047 0)"/>
      <use xlink:href="#DejaVuSerif-20" transform="translate(97.314453 0)"/>
      <use xlink:href="#DejaVuSerif-41" transform="translate(129.101562 0)"/>
      <use xlink:href="#DejaVuSerif-72" transform="translate(201.318359 0)"/>
      <use xlink:href="#DejaVuSerif-63" transform="translate(249.121094 0)"/>
      <use xlink:href="#DejaVuSerif-68" transform="translate(305.126953 0)"/>
      <use xlink:href="#DejaVuSerif-20" transform="translate(369.53125 0)"/>
      <use xlink:href="#DejaVuSerif-33" transform="translate(401.318359 0)"/>
      <use xlink:href="#DejaVuSerif-32" transform="translate(464.941406 0)"/>
      <use xlink:href="#DejaVuSerif-2d" transform="translate(528.564453 0)"/>
      <use xlink:href="#DejaVuSerif-31" transform="translate(562.353516 0)"/>
      <use xlink:href="#DejaVuSerif-36" transform="translate(625.976562 0)"/>
     </g>
    </g>
    <g id="Path3DCollection_8">
     <defs>
      <path id="mf3c784976d" d="M 0 7.071068 
C 1.875269 7.071068 3.673985 6.326016 5 5 
C 6.326016 3.673985 7.071068 1.875269 7.071068 0 
C 7.071068 -1.875269 6.326016 -3.673985 5 -5 
C 3.673985 -6.326016 1.875269 -7.071068 0 -7.071068 
C -1.875269 -7.071068 -3.673985 -6.326016 -5 -5 
C -6.326016 -3.673985 -7.071068 -1.875269 -7.071068 0 
C -7.071068 1.875269 -6.326016 3.673985 -5 5 
C -3.673985 6.326016 -1.875269 7.071068 0 7.071068 
z
" style="stroke: #077331"/>
     </defs>
     <g>
      <use xlink:href="#mf3c784976d" x="425.0665" y="130.190625" style="fill: #077331; stroke: #077331"/>
     </g>
    </g>
    <g id="text_32">
     <!-- 3: Arch 16-16 -->
     <g style="fill: #262626" transform="translate(446.6665 133.340625) scale(0.12 -0.12)">
      <use xlink:href="#DejaVuSerif-33"/>
      <use xlink:href="#DejaVuSerif-3a" transform="translate(63.623047 0)"/>
      <use xlink:href="#DejaVuSerif-20" transform="translate(97.314453 0)"/>
      <use xlink:href="#DejaVuSerif-41" transform="translate(129.101562 0)"/>
      <use xlink:href="#DejaVuSerif-72" transform="translate(201.318359 0)"/>
      <use xlink:href="#DejaVuSerif-63" transform="translate(249.121094 0)"/>
      <use xlink:href="#DejaVuSerif-68" transform="translate(305.126953 0)"/>
      <use xlink:href="#DejaVuSerif-20" transform="translate(369.53125 0)"/>
      <use xlink:href="#DejaVuSerif-31" transform="translate(401.318359 0)"/>
      <use xlink:href="#DejaVuSerif-36" transform="translate(464.941406 0)"/>
      <use xlink:href="#DejaVuSerif-2d" transform="translate(528.564453 0)"/>
      <use xlink:href="#DejaVuSerif-31" transform="translate(562.353516 0)"/>
      <use xlink:href="#DejaVuSerif-36" transform="translate(625.976562 0)"/>
     </g>
    </g>
    <g id="Path3DCollection_9">
     <defs>
      <path id="m5c05b0b268" d="M 0 7.071068 
C 1.875269 7.071068 3.673985 6.326016 5 5 
C 6.326016 3.673985 7.071068 1.875269 7.071068 0 
C 7.071068 -1.875269 6.326016 -3.673985 5 -5 
C 3.673985 -6.326016 1.875269 -7.071068 0 -7.071068 
C -1.875269 -7.071068 -3.673985 -6.326016 -5 -5 
C -6.326016 -3.673985 -7.071068 -1.875269 -7.071068 0 
C -7.071068 1.875269 -6.326016 3.673985 -5 5 
C -3.673985 6.326016 -1.875269 7.071068 0 7.071068 
z
" style="stroke: #00441b"/>
     </defs>
     <g>
      <use xlink:href="#m5c05b0b268" x="425.0665" y="147.804375" style="fill: #00441b; stroke: #00441b"/>
     </g>
    </g>
    <g id="text_33">
     <!-- 4: Arch 16-8 -->
     <g style="fill: #262626" transform="translate(446.6665 150.954375) scale(0.12 -0.12)">
      <use xlink:href="#DejaVuSerif-34"/>
      <use xlink:href="#DejaVuSerif-3a" transform="translate(63.623047 0)"/>
      <use xlink:href="#DejaVuSerif-20" transform="translate(97.314453 0)"/>
      <use xlink:href="#DejaVuSerif-41" transform="translate(129.101562 0)"/>
      <use xlink:href="#DejaVuSerif-72" transform="translate(201.318359 0)"/>
      <use xlink:href="#DejaVuSerif-63" transform="translate(249.121094 0)"/>
      <use xlink:href="#DejaVuSerif-68" transform="translate(305.126953 0)"/>
      <use xlink:href="#DejaVuSerif-20" transform="translate(369.53125 0)"/>
      <use xlink:href="#DejaVuSerif-31" transform="translate(401.318359 0)"/>
      <use xlink:href="#DejaVuSerif-36" transform="translate(464.941406 0)"/>
      <use xlink:href="#DejaVuSerif-2d" transform="translate(528.564453 0)"/>
      <use xlink:href="#DejaVuSerif-38" transform="translate(562.353516 0)"/>
     </g>
    </g>
    <g id="Path3DCollection_10">
     <defs>
      <path id="m3d58049839" d="M 0 7.071068 
C 1.875269 7.071068 3.673985 6.326016 5 5 
C 6.326016 3.673985 7.071068 1.875269 7.071068 0 
C 7.071068 -1.875269 6.326016 -3.673985 5 -5 
C 3.673985 -6.326016 1.875269 -7.071068 0 -7.071068 
C -1.875269 -7.071068 -3.673985 -6.326016 -5 -5 
C -6.326016 -3.673985 -7.071068 -1.875269 -7.071068 0 
C -7.071068 1.875269 -6.326016 3.673985 -5 5 
C -3.673985 6.326016 -1.875269 7.071068 0 7.071068 
z
" style="stroke: #fc8a6a"/>
     </defs>
     <g>
      <use xlink:href="#m3d58049839" x="425.0665" y="165.418125" style="fill: #fc8a6a; stroke: #fc8a6a"/>
     </g>
    </g>
    <g id="text_34">
     <!-- 5: Cutoff 2 -->
     <g style="fill: #262626" transform="translate(446.6665 168.568125) scale(0.12 -0.12)">
      <defs>
       <path id="DejaVuSerif-43" d="M 4513 1234 
Q 4306 581 3820 245 
Q 3334 -91 2591 -91 
Q 2134 -91 1743 65 
Q 1353 222 1050 525 
Q 700 875 529 1320 
Q 359 1766 359 2328 
Q 359 3416 987 4083 
Q 1616 4750 2644 4750 
Q 3025 4750 3456 4650 
Q 3888 4550 4384 4347 
L 4384 3272 
L 4031 3272 
Q 3916 3859 3567 4137 
Q 3219 4416 2591 4416 
Q 1844 4416 1459 3886 
Q 1075 3356 1075 2328 
Q 1075 1303 1459 773 
Q 1844 244 2591 244 
Q 3113 244 3450 492 
Q 3788 741 3938 1234 
L 4513 1234 
z
" transform="scale(0.015625)"/>
       <path id="DejaVuSerif-75" d="M 2266 3322 
L 3341 3322 
L 3341 331 
L 3884 331 
L 3884 0 
L 2766 0 
L 2766 588 
Q 2606 256 2353 82 
Q 2100 -91 1766 -91 
Q 1213 -91 952 223 
Q 691 538 691 1209 
L 691 2988 
L 172 2988 
L 172 3322 
L 1269 3322 
L 1269 1388 
Q 1269 781 1417 556 
Q 1566 331 1947 331 
Q 2347 331 2556 625 
Q 2766 919 2766 1478 
L 2766 2988 
L 2266 2988 
L 2266 3322 
z
" transform="scale(0.015625)"/>
      </defs>
      <use xlink:href="#DejaVuSerif-35"/>
      <use xlink:href="#DejaVuSerif-3a" transform="translate(63.623047 0)"/>
      <use xlink:href="#DejaVuSerif-20" transform="translate(97.314453 0)"/>
      <use xlink:href="#DejaVuSerif-43" transform="translate(129.101562 0)"/>
      <use xlink:href="#DejaVuSerif-75" transform="translate(205.615234 0)"/>
      <use xlink:href="#DejaVuSerif-74" transform="translate(270.019531 0)"/>
      <use xlink:href="#DejaVuSerif-6f" transform="translate(310.205078 0)"/>
      <use xlink:href="#DejaVuSerif-66" transform="translate(370.410156 0)"/>
      <use xlink:href="#DejaVuSerif-66" transform="translate(407.421875 0)"/>
      <use xlink:href="#DejaVuSerif-20" transform="translate(444.433594 0)"/>
      <use xlink:href="#DejaVuSerif-32" transform="translate(476.220703 0)"/>
     </g>
    </g>
    <g id="Path3DCollection_11">
     <defs>
      <path id="m338cf699fe" d="M 0 7.071068 
C 1.875269 7.071068 3.673985 6.326016 5 5 
C 6.326016 3.673985 7.071068 1.875269 7.071068 0 
C 7.071068 -1.875269 6.326016 -3.673985 5 -5 
C 3.673985 -6.326016 1.875269 -7.071068 0 -7.071068 
C -1.875269 -7.071068 -3.673985 -6.326016 -5 -5 
C -6.326016 -3.673985 -7.071068 -1.875269 -7.071068 0 
C -7.071068 1.875269 -6.326016 3.673985 -5 5 
C -3.673985 6.326016 -1.875269 7.071068 0 7.071068 
z
" style="stroke: #f6583e"/>
     </defs>
     <g>
      <use xlink:href="#m338cf699fe" x="425.0665" y="183.031875" style="fill: #f6583e; stroke: #f6583e"/>
     </g>
    </g>
    <g id="text_35">
     <!-- 6: Cutoff 3 -->
     <g style="fill: #262626" transform="translate(446.6665 186.181875) scale(0.12 -0.12)">
      <use xlink:href="#DejaVuSerif-36"/>
      <use xlink:href="#DejaVuSerif-3a" transform="translate(63.623047 0)"/>
      <use xlink:href="#DejaVuSerif-20" transform="translate(97.314453 0)"/>
      <use xlink:href="#DejaVuSerif-43" transform="translate(129.101562 0)"/>
      <use xlink:href="#DejaVuSerif-75" transform="translate(205.615234 0)"/>
      <use xlink:href="#DejaVuSerif-74" transform="translate(270.019531 0)"/>
      <use xlink:href="#DejaVuSerif-6f" transform="translate(310.205078 0)"/>
      <use xlink:href="#DejaVuSerif-66" transform="translate(370.410156 0)"/>
      <use xlink:href="#DejaVuSerif-66" transform="translate(407.421875 0)"/>
      <use xlink:href="#DejaVuSerif-20" transform="translate(444.433594 0)"/>
      <use xlink:href="#DejaVuSerif-33" transform="translate(476.220703 0)"/>
     </g>
    </g>
    <g id="Path3DCollection_12">
     <g>
      <use xlink:href="#ma707fd83ca" x="425.0665" y="200.645625" style="fill: #d92523; stroke: #d92523"/>
     </g>
    </g>
    <g id="text_36">
     <!-- 7: Cutoff 4 -->
     <g style="fill: #262626" transform="translate(446.6665 203.795625) scale(0.12 -0.12)">
      <use xlink:href="#DejaVuSerif-37"/>
      <use xlink:href="#DejaVuSerif-3a" transform="translate(63.623047 0)"/>
      <use xlink:href="#DejaVuSerif-20" transform="translate(97.314453 0)"/>
      <use xlink:href="#DejaVuSerif-43" transform="translate(129.101562 0)"/>
      <use xlink:href="#DejaVuSerif-75" transform="translate(205.615234 0)"/>
      <use xlink:href="#DejaVuSerif-74" transform="translate(270.019531 0)"/>
      <use xlink:href="#DejaVuSerif-6f" transform="translate(310.205078 0)"/>
      <use xlink:href="#DejaVuSerif-66" transform="translate(370.410156 0)"/>
      <use xlink:href="#DejaVuSerif-66" transform="translate(407.421875 0)"/>
      <use xlink:href="#DejaVuSerif-20" transform="translate(444.433594 0)"/>
      <use xlink:href="#DejaVuSerif-34" transform="translate(476.220703 0)"/>
     </g>
    </g>
    <g id="Path3DCollection_13">
     <g>
      <use xlink:href="#mb11b59a5cc" x="425.0665" y="218.259375" style="fill: #ac1117; stroke: #ac1117"/>
     </g>
    </g>
    <g id="text_37">
     <!-- 8: Cutoff 5 -->
     <g style="fill: #262626" transform="translate(446.6665 221.409375) scale(0.12 -0.12)">
      <use xlink:href="#DejaVuSerif-38"/>
      <use xlink:href="#DejaVuSerif-3a" transform="translate(63.623047 0)"/>
      <use xlink:href="#DejaVuSerif-20" transform="translate(97.314453 0)"/>
      <use xlink:href="#DejaVuSerif-43" transform="translate(129.101562 0)"/>
      <use xlink:href="#DejaVuSerif-75" transform="translate(205.615234 0)"/>
      <use xlink:href="#DejaVuSerif-74" transform="translate(270.019531 0)"/>
      <use xlink:href="#DejaVuSerif-6f" transform="translate(310.205078 0)"/>
      <use xlink:href="#DejaVuSerif-66" transform="translate(370.410156 0)"/>
      <use xlink:href="#DejaVuSerif-66" transform="translate(407.421875 0)"/>
      <use xlink:href="#DejaVuSerif-20" transform="translate(444.433594 0)"/>
      <use xlink:href="#DejaVuSerif-35" transform="translate(476.220703 0)"/>
     </g>
    </g>
    <g id="Path3DCollection_14">
     <defs>
      <path id="m857ca9459a" d="M 0 7.071068 
C 1.875269 7.071068 3.673985 6.326016 5 5 
C 6.326016 3.673985 7.071068 1.875269 7.071068 0 
C 7.071068 -1.875269 6.326016 -3.673985 5 -5 
C 3.673985 -6.326016 1.875269 -7.071068 0 -7.071068 
C -1.875269 -7.071068 -3.673985 -6.326016 -5 -5 
C -6.326016 -3.673985 -7.071068 -1.875269 -7.071068 0 
C -7.071068 1.875269 -6.326016 3.673985 -5 5 
C -3.673985 6.326016 -1.875269 7.071068 0 7.071068 
z
" style="stroke: #67000d"/>
     </defs>
     <g>
      <use xlink:href="#m857ca9459a" x="425.0665" y="235.873125" style="fill: #67000d; stroke: #67000d"/>
     </g>
    </g>
    <g id="text_38">
     <!-- 9: Cutoff 6 -->
     <g style="fill: #262626" transform="translate(446.6665 239.023125) scale(0.12 -0.12)">
      <use xlink:href="#DejaVuSerif-39"/>
      <use xlink:href="#DejaVuSerif-3a" transform="translate(63.623047 0)"/>
      <use xlink:href="#DejaVuSerif-20" transform="translate(97.314453 0)"/>
      <use xlink:href="#DejaVuSerif-43" transform="translate(129.101562 0)"/>
      <use xlink:href="#DejaVuSerif-75" transform="translate(205.615234 0)"/>
      <use xlink:href="#DejaVuSerif-74" transform="translate(270.019531 0)"/>
      <use xlink:href="#DejaVuSerif-6f" transform="translate(310.205078 0)"/>
      <use xlink:href="#DejaVuSerif-66" transform="translate(370.410156 0)"/>
      <use xlink:href="#DejaVuSerif-66" transform="translate(407.421875 0)"/>
      <use xlink:href="#DejaVuSerif-20" transform="translate(444.433594 0)"/>
      <use xlink:href="#DejaVuSerif-36" transform="translate(476.220703 0)"/>
     </g>
    </g>
    <g id="Path3DCollection_15">
     <g>
      <use xlink:href="#m05591a39d9" x="425.0665" y="253.486875" style="fill: #94c4df; stroke: #94c4df"/>
     </g>
    </g>
    <g id="text_39">
     <!-- 10: Basis 10 -->
     <g style="fill: #262626" transform="translate(446.6665 256.636875) scale(0.12 -0.12)">
      <defs>
       <path id="DejaVuSerif-42" d="M 1581 331 
L 2516 331 
Q 3078 331 3337 575 
Q 3597 819 3597 1350 
Q 3597 1878 3339 2120 
Q 3081 2363 2516 2363 
L 1581 2363 
L 1581 331 
z
M 1581 2694 
L 2375 2694 
Q 2888 2694 3123 2891 
Q 3359 3088 3359 3513 
Q 3359 3941 3123 4136 
Q 2888 4331 2375 4331 
L 1581 4331 
L 1581 2694 
z
M 353 0 
L 353 331 
L 947 331 
L 947 4331 
L 353 4331 
L 353 4666 
L 2656 4666 
Q 3363 4666 3720 4377 
Q 4078 4088 4078 3513 
Q 4078 3097 3829 2850 
Q 3581 2603 3103 2547 
Q 3697 2472 4005 2167 
Q 4313 1863 4313 1350 
Q 4313 656 3875 328 
Q 3438 0 2509 0 
L 353 0 
z
" transform="scale(0.015625)"/>
      </defs>
      <use xlink:href="#DejaVuSerif-31"/>
      <use xlink:href="#DejaVuSerif-30" transform="translate(63.623047 0)"/>
      <use xlink:href="#DejaVuSerif-3a" transform="translate(127.246094 0)"/>
      <use xlink:href="#DejaVuSerif-20" transform="translate(160.9375 0)"/>
      <use xlink:href="#DejaVuSerif-42" transform="translate(192.724609 0)"/>
      <use xlink:href="#DejaVuSerif-61" transform="translate(266.210938 0)"/>
      <use xlink:href="#DejaVuSerif-73" transform="translate(325.830078 0)"/>
      <use xlink:href="#DejaVuSerif-69" transform="translate(377.148438 0)"/>
      <use xlink:href="#DejaVuSerif-73" transform="translate(409.130859 0)"/>
      <use xlink:href="#DejaVuSerif-20" transform="translate(460.449219 0)"/>
      <use xlink:href="#DejaVuSerif-31" transform="translate(492.236328 0)"/>
      <use xlink:href="#DejaVuSerif-30" transform="translate(555.859375 0)"/>
     </g>
    </g>
    <g id="Path3DCollection_16">
     <defs>
      <path id="m5dd18dc832" d="M 0 7.071068 
C 1.875269 7.071068 3.673985 6.326016 5 5 
C 6.326016 3.673985 7.071068 1.875269 7.071068 0 
C 7.071068 -1.875269 6.326016 -3.673985 5 -5 
C 3.673985 -6.326016 1.875269 -7.071068 0 -7.071068 
C -1.875269 -7.071068 -3.673985 -6.326016 -5 -5 
C -6.326016 -3.673985 -7.071068 -1.875269 -7.071068 0 
C -7.071068 1.875269 -6.326016 3.673985 -5 5 
C -3.673985 6.326016 -1.875269 7.071068 0 7.071068 
z
" style="stroke: #4a98c9"/>
     </defs>
     <g>
      <use xlink:href="#m5dd18dc832" x="425.0665" y="271.100625" style="fill: #4a98c9; stroke: #4a98c9"/>
     </g>
    </g>
    <g id="text_40">
     <!-- 11: Basis 15 -->
     <g style="fill: #262626" transform="translate(446.6665 274.250625) scale(0.12 -0.12)">
      <use xlink:href="#DejaVuSerif-31"/>
      <use xlink:href="#DejaVuSerif-31" transform="translate(63.623047 0)"/>
      <use xlink:href="#DejaVuSerif-3a" transform="translate(127.246094 0)"/>
      <use xlink:href="#DejaVuSerif-20" transform="translate(160.9375 0)"/>
      <use xlink:href="#DejaVuSerif-42" transform="translate(192.724609 0)"/>
      <use xlink:href="#DejaVuSerif-61" transform="translate(266.210938 0)"/>
      <use xlink:href="#DejaVuSerif-73" transform="translate(325.830078 0)"/>
      <use xlink:href="#DejaVuSerif-69" transform="translate(377.148438 0)"/>
      <use xlink:href="#DejaVuSerif-73" transform="translate(409.130859 0)"/>
      <use xlink:href="#DejaVuSerif-20" transform="translate(460.449219 0)"/>
      <use xlink:href="#DejaVuSerif-31" transform="translate(492.236328 0)"/>
      <use xlink:href="#DejaVuSerif-35" transform="translate(555.859375 0)"/>
     </g>
    </g>
    <g id="Path3DCollection_17">
     <defs>
      <path id="m3a7eefc2bd" d="M 0 7.071068 
C 1.875269 7.071068 3.673985 6.326016 5 5 
C 6.326016 3.673985 7.071068 1.875269 7.071068 0 
C 7.071068 -1.875269 6.326016 -3.673985 5 -5 
C 3.673985 -6.326016 1.875269 -7.071068 0 -7.071068 
C -1.875269 -7.071068 -3.673985 -6.326016 -5 -5 
C -6.326016 -3.673985 -7.071068 -1.875269 -7.071068 0 
C -7.071068 1.875269 -6.326016 3.673985 -5 5 
C -3.673985 6.326016 -1.875269 7.071068 0 7.071068 
z
" style="stroke: #1764ab"/>
     </defs>
     <g>
      <use xlink:href="#m3a7eefc2bd" x="425.0665" y="288.714375" style="fill: #1764ab; stroke: #1764ab"/>
     </g>
    </g>
    <g id="text_41">
     <!-- 12: Basis 20 -->
     <g style="fill: #262626" transform="translate(446.6665 291.864375) scale(0.12 -0.12)">
      <use xlink:href="#DejaVuSerif-31"/>
      <use xlink:href="#DejaVuSerif-32" transform="translate(63.623047 0)"/>
      <use xlink:href="#DejaVuSerif-3a" transform="translate(127.246094 0)"/>
      <use xlink:href="#DejaVuSerif-20" transform="translate(160.9375 0)"/>
      <use xlink:href="#DejaVuSerif-42" transform="translate(192.724609 0)"/>
      <use xlink:href="#DejaVuSerif-61" transform="translate(266.210938 0)"/>
      <use xlink:href="#DejaVuSerif-73" transform="translate(325.830078 0)"/>
      <use xlink:href="#DejaVuSerif-69" transform="translate(377.148438 0)"/>
      <use xlink:href="#DejaVuSerif-73" transform="translate(409.130859 0)"/>
      <use xlink:href="#DejaVuSerif-20" transform="translate(460.449219 0)"/>
      <use xlink:href="#DejaVuSerif-32" transform="translate(492.236328 0)"/>
      <use xlink:href="#DejaVuSerif-30" transform="translate(555.859375 0)"/>
     </g>
    </g>
    <g id="Path3DCollection_18">
     <defs>
      <path id="m3c3f3892af" d="M 0 7.071068 
C 1.875269 7.071068 3.673985 6.326016 5 5 
C 6.326016 3.673985 7.071068 1.875269 7.071068 0 
C 7.071068 -1.875269 6.326016 -3.673985 5 -5 
C 3.673985 -6.326016 1.875269 -7.071068 0 -7.071068 
C -1.875269 -7.071068 -3.673985 -6.326016 -5 -5 
C -6.326016 -3.673985 -7.071068 -1.875269 -7.071068 0 
C -7.071068 1.875269 -6.326016 3.673985 -5 5 
C -3.673985 6.326016 -1.875269 7.071068 0 7.071068 
z
" style="stroke: #08306b"/>
     </defs>
     <g>
      <use xlink:href="#m3c3f3892af" x="425.0665" y="306.328125" style="fill: #08306b; stroke: #08306b"/>
     </g>
    </g>
    <g id="text_42">
     <!-- 13: Basis 24 -->
     <g style="fill: #262626" transform="translate(446.6665 309.478125) scale(0.12 -0.12)">
      <use xlink:href="#DejaVuSerif-31"/>
      <use xlink:href="#DejaVuSerif-33" transform="translate(63.623047 0)"/>
      <use xlink:href="#DejaVuSerif-3a" transform="translate(127.246094 0)"/>
      <use xlink:href="#DejaVuSerif-20" transform="translate(160.9375 0)"/>
      <use xlink:href="#DejaVuSerif-42" transform="translate(192.724609 0)"/>
      <use xlink:href="#DejaVuSerif-61" transform="translate(266.210938 0)"/>
      <use xlink:href="#DejaVuSerif-73" transform="translate(325.830078 0)"/>
      <use xlink:href="#DejaVuSerif-69" transform="translate(377.148438 0)"/>
      <use xlink:href="#DejaVuSerif-73" transform="translate(409.130859 0)"/>
      <use xlink:href="#DejaVuSerif-20" transform="translate(460.449219 0)"/>
      <use xlink:href="#DejaVuSerif-32" transform="translate(492.236328 0)"/>
      <use xlink:href="#DejaVuSerif-34" transform="translate(555.859375 0)"/>
     </g>
    </g>
   </g>
   <g id="Path3DCollection_19">
    <g clip-path="url(#p08b1b8abfc)">
     <use xlink:href="#m3a7eefc2bd" x="81.216391" y="263.419221" style="fill: #1764ab; stroke: #1764ab"/>
    </g>
   </g>
   <g id="Path3DCollection_20">
    <g clip-path="url(#p08b1b8abfc)">
     <use xlink:href="#m20c3e0f849" x="82.985244" y="261.036685" style="fill: #98d594; stroke: #98d594"/>
    </g>
   </g>
   <g id="Path3DCollection_21">
    <g clip-path="url(#p08b1b8abfc)">
     <use xlink:href="#m857ca9459a" x="80.2333" y="264.797379" style="fill: #67000d; stroke: #67000d"/>
    </g>
   </g>
   <g id="Path3DCollection_22">
    <g clip-path="url(#p08b1b8abfc)">
     <use xlink:href="#m5c05b0b268" x="84.733808" y="262.102569" style="fill: #00441b; stroke: #00441b"/>
    </g>
   </g>
   <g id="Path3DCollection_23">
    <g clip-path="url(#p08b1b8abfc)">
     <use xlink:href="#m3c3f3892af" x="82.645818" y="263.472457" style="fill: #08306b; stroke: #08306b"/>
    </g>
   </g>
   <g id="Path3DCollection_24">
    <g clip-path="url(#p08b1b8abfc)">
     <use xlink:href="#mf3c784976d" x="85.000679" y="262.206686" style="fill: #077331; stroke: #077331"/>
    </g>
   </g>
   <g id="Path3DCollection_25">
    <g clip-path="url(#p08b1b8abfc)">
     <use xlink:href="#m582a7a84f0" x="83.44383" y="263.794572" style="fill: #60ba6c; stroke: #60ba6c"/>
    </g>
   </g>
   <g id="Path3DCollection_26">
    <g clip-path="url(#p08b1b8abfc)">
     <use xlink:href="#m338cf699fe" x="134.190051" y="232.971648" style="fill: #f6583e; stroke: #f6583e"/>
    </g>
   </g>
   <g id="Path3DCollection_27">
    <g clip-path="url(#p08b1b8abfc)">
     <use xlink:href="#m5dd18dc832" x="88.340648" y="265.415914" style="fill: #4a98c9; stroke: #4a98c9"/>
    </g>
   </g>
   <g id="Path3DCollection_28">
    <g clip-path="url(#p08b1b8abfc)">
     <use xlink:href="#m3d58049839" x="335.157478" y="109.18434" style="fill: #fc8a6a; stroke: #fc8a6a"/>
    </g>
   </g>
  </g>
 </g>
 <defs>
  <clipPath id="p08b1b8abfc">
   <rect x="36.3625" y="25.3575" width="332.64" height="332.64"/>
  </clipPath>
 </defs>
</svg>
