<?xml version="1.0" encoding="utf-8" standalone="no"?>
<!DOCTYPE svg PUBLIC "-//W3C//DTD SVG 1.1//EN"
  "http://www.w3.org/Graphics/SVG/1.1/DTD/svg11.dtd">
<svg xmlns:xlink="http://www.w3.org/1999/xlink" width="510.773437pt" height="413.5525pt" viewBox="0 0 510.773437 413.5525" xmlns="http://www.w3.org/2000/svg" version="1.1">
 <metadata>
  <rdf:RDF xmlns:dc="http://purl.org/dc/elements/1.1/" xmlns:cc="http://creativecommons.org/ns#" xmlns:rdf="http://www.w3.org/1999/02/22-rdf-syntax-ns#">
   <cc:Work>
    <dc:type rdf:resource="http://purl.org/dc/dcmitype/StillImage"/>
    <dc:date>2026-05-01T12:26:39.902958</dc:date>
    <dc:format>image/svg+xml</dc:format>
    <dc:creator>
     <cc:Agent>
      <dc:title>Matplotlib v3.10.9, https://matplotlib.org/</dc:title>
     </cc:Agent>
    </dc:creator>
   </cc:Work>
  </rdf:RDF>
 </metadata>
 <defs>
  <style type="text/css">*{stroke-linejoin: round; stroke-linecap: butt}</style>
 </defs>
 <g id="figure_1">
  <g id="patch_1">
   <path d="M 0 413.5525 
L 510.773437 413.5525 
L 510.773437 0 
L 0 0 
z
" style="fill: #ffffff"/>
  </g>
  <g id="axes_1">
   <g id="patch_2">
    <path d="M 57.173438 357.9975 
L 503.573437 357.9975 
L 503.573437 25.3575 
L 57.173438 25.3575 
z
" style="fill: #ffffff"/>
   </g>
   <g id="matplotlib.axis_1">
    <g id="xtick_1">
     <g id="line2d_1">
      <path d="M 76.204042 357.9975 
L 76.204042 25.3575 
" clip-path="url(#pd0ca7f5b17)" style="fill: none; stroke: #cccccc; stroke-opacity: 0.2; stroke-width: 0.8; stroke-linecap: round"/>
     </g>
     <g id="line2d_2">
      <defs>
       <path id="ma8d0c7ce0e" d="M 0 0 
L 0 6 
" style="stroke: #262626; stroke-width: 0.8"/>
      </defs>
      <g>
       <use xlink:href="#ma8d0c7ce0e" x="76.204042" y="367.9975" style="fill: #262626; stroke: #262626; stroke-width: 0.8"/>
      </g>
     </g>
     <g id="text_1">
      <!-- 0 -->
      <g style="fill: #262626" transform="translate(73.022792 385.095937) scale(0.1 -0.1)">
       <defs>
        <path id="DejaVuSerif-30" d="M 2034 219 
Q 2513 219 2750 744 
Q 2988 1269 2988 2328 
Q 2988 3391 2750 3916 
Q 2513 4441 2034 4441 
Q 1556 4441 1318 3916 
Q 1081 3391 1081 2328 
Q 1081 1269 1318 744 
Q 1556 219 2034 219 
z
M 2034 -91 
Q 1275 -91 848 546 
Q 422 1184 422 2328 
Q 422 3475 848 4112 
Q 1275 4750 2034 4750 
Q 2797 4750 3222 4112 
Q 3647 3475 3647 2328 
Q 3647 1184 3222 546 
Q 2797 -91 2034 -91 
z
" transform="scale(0.015625)"/>
       </defs>
       <use xlink:href="#DejaVuSerif-30"/>
      </g>
     </g>
    </g>
    <g id="xtick_2">
     <g id="line2d_3">
      <path d="M 126.616238 357.9975 
L 126.616238 25.3575 
" clip-path="url(#pd0ca7f5b17)" style="fill: none; stroke: #cccccc; stroke-opacity: 0.2; stroke-width: 0.8; stroke-linecap: round"/>
     </g>
     <g id="line2d_4">
      <g>
       <use xlink:href="#ma8d0c7ce0e" x="126.616238" y="367.9975" style="fill: #262626; stroke: #262626; stroke-width: 0.8"/>
      </g>
     </g>
     <g id="text_2">
      <!-- 1 -->
      <g style="fill: #262626" transform="translate(123.434988 385.095937) scale(0.1 -0.1)">
       <defs>
        <path id="DejaVuSerif-31" d="M 909 0 
L 909 331 
L 1722 331 
L 1722 4213 
L 781 3603 
L 781 4013 
L 1919 4750 
L 2350 4750 
L 2350 331 
L 3163 331 
L 3163 0 
L 909 0 
z
" transform="scale(0.015625)"/>
       </defs>
       <use xlink:href="#DejaVuSerif-31"/>
      </g>
     </g>
    </g>
    <g id="xtick_3">
     <g id="line2d_5">
      <path d="M 177.028435 357.9975 
L 177.028435 25.3575 
" clip-path="url(#pd0ca7f5b17)" style="fill: none; stroke: #cccccc; stroke-opacity: 0.2; stroke-width: 0.8; stroke-linecap: round"/>
     </g>
     <g id="line2d_6">
      <g>
       <use xlink:href="#ma8d0c7ce0e" x="177.028435" y="367.9975" style="fill: #262626; stroke: #262626; stroke-width: 0.8"/>
      </g>
     </g>
     <g id="text_3">
      <!-- 2 -->
      <g style="fill: #262626" transform="translate(173.847185 385.095937) scale(0.1 -0.1)">
       <defs>
        <path id="DejaVuSerif-32" d="M 819 3553 
L 469 3553 
L 469 4384 
Q 803 4563 1142 4656 
Q 1481 4750 1806 4750 
Q 2534 4750 2956 4397 
Q 3378 4044 3378 3438 
Q 3378 2753 2422 1800 
Q 2347 1728 2309 1691 
L 1131 513 
L 3078 513 
L 3078 1088 
L 3444 1088 
L 3444 0 
L 434 0 
L 434 341 
L 1850 1753 
Q 2319 2222 2519 2614 
Q 2719 3006 2719 3438 
Q 2719 3909 2473 4175 
Q 2228 4441 1797 4441 
Q 1350 4441 1106 4219 
Q 863 3997 819 3553 
z
" transform="scale(0.015625)"/>
       </defs>
       <use xlink:href="#DejaVuSerif-32"/>
      </g>
     </g>
    </g>
    <g id="xtick_4">
     <g id="line2d_7">
      <path d="M 227.440631 357.9975 
L 227.440631 25.3575 
" clip-path="url(#pd0ca7f5b17)" style="fill: none; stroke: #cccccc; stroke-opacity: 0.2; stroke-width: 0.8; stroke-linecap: round"/>
     </g>
     <g id="line2d_8">
      <g>
       <use xlink:href="#ma8d0c7ce0e" x="227.440631" y="367.9975" style="fill: #262626; stroke: #262626; stroke-width: 0.8"/>
      </g>
     </g>
     <g id="text_4">
      <!-- 3 -->
      <g style="fill: #262626" transform="translate(224.259381 385.095937) scale(0.1 -0.1)">
       <defs>
        <path id="DejaVuSerif-33" d="M 622 4469 
Q 988 4606 1323 4678 
Q 1659 4750 1953 4750 
Q 2638 4750 3022 4454 
Q 3406 4159 3406 3634 
Q 3406 3213 3140 2930 
Q 2875 2647 2388 2547 
Q 2963 2466 3280 2130 
Q 3597 1794 3597 1259 
Q 3597 606 3158 257 
Q 2719 -91 1894 -91 
Q 1528 -91 1179 -12 
Q 831 66 488 225 
L 488 1131 
L 838 1131 
Q 869 681 1141 450 
Q 1413 219 1906 219 
Q 2384 219 2661 495 
Q 2938 772 2938 1253 
Q 2938 1803 2653 2086 
Q 2369 2369 1819 2369 
L 1522 2369 
L 1522 2688 
L 1678 2688 
Q 2225 2688 2498 2914 
Q 2772 3141 2772 3597 
Q 2772 4006 2547 4223 
Q 2322 4441 1900 4441 
Q 1478 4441 1245 4241 
Q 1013 4041 972 3647 
L 622 3647 
L 622 4469 
z
" transform="scale(0.015625)"/>
       </defs>
       <use xlink:href="#DejaVuSerif-33"/>
      </g>
     </g>
    </g>
    <g id="xtick_5">
     <g id="line2d_9">
      <path d="M 277.852828 357.9975 
L 277.852828 25.3575 
" clip-path="url(#pd0ca7f5b17)" style="fill: none; stroke: #cccccc; stroke-opacity: 0.2; stroke-width: 0.8; stroke-linecap: round"/>
     </g>
     <g id="line2d_10">
      <g>
       <use xlink:href="#ma8d0c7ce0e" x="277.852828" y="367.9975" style="fill: #262626; stroke: #262626; stroke-width: 0.8"/>
      </g>
     </g>
     <g id="text_5">
      <!-- 4 -->
      <g style="fill: #262626" transform="translate(274.671578 385.095937) scale(0.1 -0.1)">
       <defs>
        <path id="DejaVuSerif-34" d="M 2234 1581 
L 2234 4063 
L 641 1581 
L 2234 1581 
z
M 3609 0 
L 1484 0 
L 1484 331 
L 2234 331 
L 2234 1247 
L 197 1247 
L 197 1588 
L 2241 4750 
L 2859 4750 
L 2859 1581 
L 3750 1581 
L 3750 1247 
L 2859 1247 
L 2859 331 
L 3609 331 
L 3609 0 
z
" transform="scale(0.015625)"/>
       </defs>
       <use xlink:href="#DejaVuSerif-34"/>
      </g>
     </g>
    </g>
    <g id="xtick_6">
     <g id="line2d_11">
      <path d="M 328.265024 357.9975 
L 328.265024 25.3575 
" clip-path="url(#pd0ca7f5b17)" style="fill: none; stroke: #cccccc; stroke-opacity: 0.2; stroke-width: 0.8; stroke-linecap: round"/>
     </g>
     <g id="line2d_12">
      <g>
       <use xlink:href="#ma8d0c7ce0e" x="328.265024" y="367.9975" style="fill: #262626; stroke: #262626; stroke-width: 0.8"/>
      </g>
     </g>
     <g id="text_6">
      <!-- 5 -->
      <g style="fill: #262626" transform="translate(325.083774 385.095937) scale(0.1 -0.1)">
       <defs>
        <path id="DejaVuSerif-35" d="M 3219 4666 
L 3219 4153 
L 1081 4153 
L 1081 2816 
Q 1244 2928 1461 2984 
Q 1678 3041 1947 3041 
Q 2703 3041 3140 2622 
Q 3578 2203 3578 1478 
Q 3578 738 3136 323 
Q 2694 -91 1894 -91 
Q 1572 -91 1234 -12 
Q 897 66 544 225 
L 544 1131 
L 897 1131 
Q 925 688 1179 453 
Q 1434 219 1894 219 
Q 2388 219 2653 544 
Q 2919 869 2919 1478 
Q 2919 2084 2655 2407 
Q 2391 2731 1894 2731 
Q 1613 2731 1398 2631 
Q 1184 2531 1019 2322 
L 750 2322 
L 750 4666 
L 3219 4666 
z
" transform="scale(0.015625)"/>
       </defs>
       <use xlink:href="#DejaVuSerif-35"/>
      </g>
     </g>
    </g>
    <g id="xtick_7">
     <g id="line2d_13">
      <path d="M 378.677221 357.9975 
L 378.677221 25.3575 
" clip-path="url(#pd0ca7f5b17)" style="fill: none; stroke: #cccccc; stroke-opacity: 0.2; stroke-width: 0.8; stroke-linecap: round"/>
     </g>
     <g id="line2d_14">
      <g>
       <use xlink:href="#ma8d0c7ce0e" x="378.677221" y="367.9975" style="fill: #262626; stroke: #262626; stroke-width: 0.8"/>
      </g>
     </g>
     <g id="text_7">
      <!-- 6 -->
      <g style="fill: #262626" transform="translate(375.495971 385.095937) scale(0.1 -0.1)">
       <defs>
        <path id="DejaVuSerif-36" d="M 2094 219 
Q 2534 219 2771 542 
Q 3009 866 3009 1472 
Q 3009 2078 2771 2401 
Q 2534 2725 2094 2725 
Q 1647 2725 1412 2412 
Q 1178 2100 1178 1509 
Q 1178 888 1415 553 
Q 1653 219 2094 219 
z
M 1075 2569 
Q 1288 2803 1556 2918 
Q 1825 3034 2163 3034 
Q 2859 3034 3264 2615 
Q 3669 2197 3669 1472 
Q 3669 763 3233 336 
Q 2797 -91 2069 -91 
Q 1278 -91 853 498 
Q 428 1088 428 2181 
Q 428 3406 931 4078 
Q 1434 4750 2350 4750 
Q 2597 4750 2869 4703 
Q 3141 4656 3425 4563 
L 3425 3794 
L 3072 3794 
Q 3034 4109 2831 4275 
Q 2628 4441 2284 4441 
Q 1678 4441 1381 3981 
Q 1084 3522 1075 2569 
z
" transform="scale(0.015625)"/>
       </defs>
       <use xlink:href="#DejaVuSerif-36"/>
      </g>
     </g>
    </g>
    <g id="xtick_8">
     <g id="line2d_15">
      <path d="M 429.089417 357.9975 
L 429.089417 25.3575 
" clip-path="url(#pd0ca7f5b17)" style="fill: none; stroke: #cccccc; stroke-opacity: 0.2; stroke-width: 0.8; stroke-linecap: round"/>
     </g>
     <g id="line2d_16">
      <g>
       <use xlink:href="#ma8d0c7ce0e" x="429.089417" y="367.9975" style="fill: #262626; stroke: #262626; stroke-width: 0.8"/>
      </g>
     </g>
     <g id="text_8">
      <!-- 7 -->
      <g style="fill: #262626" transform="translate(425.908167 385.095937) scale(0.1 -0.1)">
       <defs>
        <path id="DejaVuSerif-37" d="M 3609 4347 
L 1784 0 
L 1319 0 
L 3059 4153 
L 903 4153 
L 903 3578 
L 538 3578 
L 538 4666 
L 3609 4666 
L 3609 4347 
z
" transform="scale(0.015625)"/>
       </defs>
       <use xlink:href="#DejaVuSerif-37"/>
      </g>
     </g>
    </g>
    <g id="xtick_9">
     <g id="line2d_17">
      <path d="M 479.501614 357.9975 
L 479.501614 25.3575 
" clip-path="url(#pd0ca7f5b17)" style="fill: none; stroke: #cccccc; stroke-opacity: 0.2; stroke-width: 0.8; stroke-linecap: round"/>
     </g>
     <g id="line2d_18">
      <g>
       <use xlink:href="#ma8d0c7ce0e" x="479.501614" y="367.9975" style="fill: #262626; stroke: #262626; stroke-width: 0.8"/>
      </g>
     </g>
     <g id="text_9">
      <!-- 8 -->
      <g style="fill: #262626" transform="translate(476.320364 385.095937) scale(0.1 -0.1)">
       <defs>
        <path id="DejaVuSerif-38" d="M 2981 1275 
Q 2981 1775 2732 2051 
Q 2484 2328 2034 2328 
Q 1584 2328 1336 2051 
Q 1088 1775 1088 1275 
Q 1088 772 1336 495 
Q 1584 219 2034 219 
Q 2484 219 2732 495 
Q 2981 772 2981 1275 
z
M 2853 3541 
Q 2853 3966 2637 4203 
Q 2422 4441 2034 4441 
Q 1650 4441 1433 4203 
Q 1216 3966 1216 3541 
Q 1216 3113 1433 2875 
Q 1650 2638 2034 2638 
Q 2422 2638 2637 2875 
Q 2853 3113 2853 3541 
z
M 2516 2484 
Q 3047 2413 3344 2092 
Q 3641 1772 3641 1275 
Q 3641 619 3225 264 
Q 2809 -91 2034 -91 
Q 1263 -91 845 264 
Q 428 619 428 1275 
Q 428 1772 725 2092 
Q 1022 2413 1556 2484 
Q 1084 2569 832 2842 
Q 581 3116 581 3541 
Q 581 4103 968 4426 
Q 1356 4750 2034 4750 
Q 2713 4750 3100 4426 
Q 3488 4103 3488 3541 
Q 3488 3116 3236 2842 
Q 2984 2569 2516 2484 
z
" transform="scale(0.015625)"/>
       </defs>
       <use xlink:href="#DejaVuSerif-38"/>
      </g>
     </g>
    </g>
    <g id="text_10">
     <!-- r (Å) -->
     <g style="fill: #262626" transform="translate(264.285469 403.440938) scale(0.14 -0.14)">
      <defs>
       <path id="DejaVuSerif-72" d="M 3059 3328 
L 3059 2497 
L 2728 2497 
Q 2713 2744 2591 2866 
Q 2469 2988 2234 2988 
Q 1809 2988 1582 2694 
Q 1356 2400 1356 1850 
L 1356 331 
L 2022 331 
L 2022 0 
L 263 0 
L 263 331 
L 781 331 
L 781 2994 
L 231 2994 
L 231 3322 
L 1356 3322 
L 1356 2731 
Q 1525 3078 1790 3245 
Q 2056 3413 2438 3413 
Q 2578 3413 2733 3391 
Q 2888 3369 3059 3328 
z
" transform="scale(0.015625)"/>
       <path id="DejaVuSerif-20" transform="scale(0.015625)"/>
       <path id="DejaVuSerif-28" d="M 2041 -997 
Q 1281 -656 893 83 
Q 506 822 506 1931 
Q 506 3044 893 3783 
Q 1281 4522 2041 4863 
L 2041 4556 
Q 1559 4225 1350 3623 
Q 1141 3022 1141 1931 
Q 1141 844 1350 242 
Q 1559 -359 2041 -691 
L 2041 -997 
z
" transform="scale(0.015625)"/>
       <path id="DejaVuSerif-c5" d="M 2772 5081 
Q 2772 5278 2633 5417 
Q 2494 5556 2297 5556 
Q 2097 5556 1961 5420 
Q 1825 5284 1825 5081 
Q 1825 4884 1961 4746 
Q 2097 4609 2297 4609 
Q 2494 4609 2633 4746 
Q 2772 4884 2772 5081 
z
M 1281 1691 
L 2988 1691 
L 2138 3909 
L 1281 1691 
z
M -38 0 
L -38 331 
L 372 331 
L 1900 4325 
Q 1675 4441 1558 4631 
Q 1441 4822 1441 5081 
Q 1441 5438 1691 5689 
Q 1941 5941 2297 5941 
Q 2653 5941 2904 5689 
Q 3156 5438 3156 5081 
Q 3156 4831 3034 4632 
Q 2913 4434 2688 4325 
L 4225 331 
L 4684 331 
L 4684 0 
L 2988 0 
L 2988 331 
L 3506 331 
L 3116 1356 
L 1153 1356 
L 763 331 
L 1275 331 
L 1275 0 
L -38 0 
z
" transform="scale(0.015625)"/>
       <path id="DejaVuSerif-29" d="M 453 -997 
L 453 -691 
Q 934 -359 1145 242 
Q 1356 844 1356 1931 
Q 1356 3022 1145 3623 
Q 934 4225 453 4556 
L 453 4863 
Q 1216 4522 1603 3783 
Q 1991 3044 1991 1931 
Q 1991 822 1603 83 
Q 1216 -656 453 -997 
z
" transform="scale(0.015625)"/>
      </defs>
      <use xlink:href="#DejaVuSerif-72"/>
      <use xlink:href="#DejaVuSerif-20" transform="translate(47.802734 0)"/>
      <use xlink:href="#DejaVuSerif-28" transform="translate(79.589844 0)"/>
      <use xlink:href="#DejaVuSerif-c5" transform="translate(118.603516 0)"/>
      <use xlink:href="#DejaVuSerif-29" transform="translate(190.820312 0)"/>
     </g>
    </g>
   </g>
   <g id="matplotlib.axis_2">
    <g id="ytick_1">
     <g id="line2d_19">
      <path d="M 57.173438 342.8775 
L 503.573437 342.8775 
" clip-path="url(#pd0ca7f5b17)" style="fill: none; stroke: #cccccc; stroke-opacity: 0.2; stroke-width: 0.8; stroke-linecap: round"/>
     </g>
     <g id="line2d_20">
      <defs>
       <path id="m7505a15071" d="M 0 0 
L -6 0 
" style="stroke: #262626; stroke-width: 0.8"/>
      </defs>
      <g>
       <use xlink:href="#m7505a15071" x="47.173438" y="342.8775" style="fill: #262626; stroke: #262626; stroke-width: 0.8"/>
      </g>
     </g>
     <g id="text_11">
      <!-- 0 -->
      <g style="fill: #262626" transform="translate(31.310938 346.676719) scale(0.1 -0.1)">
       <use xlink:href="#DejaVuSerif-30"/>
      </g>
     </g>
    </g>
    <g id="ytick_2">
     <g id="line2d_21">
      <path d="M 57.173438 293.595644 
L 503.573437 293.595644 
" clip-path="url(#pd0ca7f5b17)" style="fill: none; stroke: #cccccc; stroke-opacity: 0.2; stroke-width: 0.8; stroke-linecap: round"/>
     </g>
     <g id="line2d_22">
      <g>
       <use xlink:href="#m7505a15071" x="47.173438" y="293.595644" style="fill: #262626; stroke: #262626; stroke-width: 0.8"/>
      </g>
     </g>
     <g id="text_12">
      <!-- 2 -->
      <g style="fill: #262626" transform="translate(31.310938 297.394862) scale(0.1 -0.1)">
       <use xlink:href="#DejaVuSerif-32"/>
      </g>
     </g>
    </g>
    <g id="ytick_3">
     <g id="line2d_23">
      <path d="M 57.173438 244.313787 
L 503.573437 244.313787 
" clip-path="url(#pd0ca7f5b17)" style="fill: none; stroke: #cccccc; stroke-opacity: 0.2; stroke-width: 0.8; stroke-linecap: round"/>
     </g>
     <g id="line2d_24">
      <g>
       <use xlink:href="#m7505a15071" x="47.173438" y="244.313787" style="fill: #262626; stroke: #262626; stroke-width: 0.8"/>
      </g>
     </g>
     <g id="text_13">
      <!-- 4 -->
      <g style="fill: #262626" transform="translate(31.310938 248.113006) scale(0.1 -0.1)">
       <use xlink:href="#DejaVuSerif-34"/>
      </g>
     </g>
    </g>
    <g id="ytick_4">
     <g id="line2d_25">
      <path d="M 57.173438 195.031931 
L 503.573437 195.031931 
" clip-path="url(#pd0ca7f5b17)" style="fill: none; stroke: #cccccc; stroke-opacity: 0.2; stroke-width: 0.8; stroke-linecap: round"/>
     </g>
     <g id="line2d_26">
      <g>
       <use xlink:href="#m7505a15071" x="47.173438" y="195.031931" style="fill: #262626; stroke: #262626; stroke-width: 0.8"/>
      </g>
     </g>
     <g id="text_14">
      <!-- 6 -->
      <g style="fill: #262626" transform="translate(31.310938 198.831149) scale(0.1 -0.1)">
       <use xlink:href="#DejaVuSerif-36"/>
      </g>
     </g>
    </g>
    <g id="ytick_5">
     <g id="line2d_27">
      <path d="M 57.173438 145.750074 
L 503.573437 145.750074 
" clip-path="url(#pd0ca7f5b17)" style="fill: none; stroke: #cccccc; stroke-opacity: 0.2; stroke-width: 0.8; stroke-linecap: round"/>
     </g>
     <g id="line2d_28">
      <g>
       <use xlink:href="#m7505a15071" x="47.173438" y="145.750074" style="fill: #262626; stroke: #262626; stroke-width: 0.8"/>
      </g>
     </g>
     <g id="text_15">
      <!-- 8 -->
      <g style="fill: #262626" transform="translate(31.310938 149.549293) scale(0.1 -0.1)">
       <use xlink:href="#DejaVuSerif-38"/>
      </g>
     </g>
    </g>
    <g id="ytick_6">
     <g id="line2d_29">
      <path d="M 57.173438 96.468218 
L 503.573437 96.468218 
" clip-path="url(#pd0ca7f5b17)" style="fill: none; stroke: #cccccc; stroke-opacity: 0.2; stroke-width: 0.8; stroke-linecap: round"/>
     </g>
     <g id="line2d_30">
      <g>
       <use xlink:href="#m7505a15071" x="47.173438" y="96.468218" style="fill: #262626; stroke: #262626; stroke-width: 0.8"/>
      </g>
     </g>
     <g id="text_16">
      <!-- 10 -->
      <g style="fill: #262626" transform="translate(24.948438 100.267436) scale(0.1 -0.1)">
       <use xlink:href="#DejaVuSerif-31"/>
       <use xlink:href="#DejaVuSerif-30" transform="translate(63.623047 0)"/>
      </g>
     </g>
    </g>
    <g id="ytick_7">
     <g id="line2d_31">
      <path d="M 57.173438 47.186361 
L 503.573437 47.186361 
" clip-path="url(#pd0ca7f5b17)" style="fill: none; stroke: #cccccc; stroke-opacity: 0.2; stroke-width: 0.8; stroke-linecap: round"/>
     </g>
     <g id="line2d_32">
      <g>
       <use xlink:href="#m7505a15071" x="47.173438" y="47.186361" style="fill: #262626; stroke: #262626; stroke-width: 0.8"/>
      </g>
     </g>
     <g id="text_17">
      <!-- 12 -->
      <g style="fill: #262626" transform="translate(24.948438 50.98558) scale(0.1 -0.1)">
       <use xlink:href="#DejaVuSerif-31"/>
       <use xlink:href="#DejaVuSerif-32" transform="translate(63.623047 0)"/>
      </g>
     </g>
    </g>
    <g id="text_18">
     <!-- g(r) -->
     <g style="fill: #262626" transform="translate(17.837813 204.966562) rotate(-90) scale(0.14 -0.14)">
      <defs>
       <path id="DejaVuSerif-67" d="M 3359 2988 
L 3359 72 
Q 3359 -644 2965 -1033 
Q 2572 -1422 1844 -1422 
Q 1516 -1422 1216 -1362 
Q 916 -1303 641 -1184 
L 641 -488 
L 941 -488 
Q 997 -813 1206 -963 
Q 1416 -1113 1806 -1113 
Q 2313 -1113 2548 -827 
Q 2784 -541 2784 72 
L 2784 519 
Q 2616 206 2355 57 
Q 2094 -91 1709 -91 
Q 1097 -91 708 395 
Q 319 881 319 1663 
Q 319 2444 706 2928 
Q 1094 3413 1709 3413 
Q 2094 3413 2355 3264 
Q 2616 3116 2784 2803 
L 2784 3322 
L 3909 3322 
L 3909 2988 
L 3359 2988 
z
M 2784 1825 
Q 2784 2422 2554 2737 
Q 2325 3053 1888 3053 
Q 1444 3053 1217 2703 
Q 991 2353 991 1663 
Q 991 975 1217 622 
Q 1444 269 1888 269 
Q 2325 269 2554 583 
Q 2784 897 2784 1497 
L 2784 1825 
z
" transform="scale(0.015625)"/>
      </defs>
      <use xlink:href="#DejaVuSerif-67"/>
      <use xlink:href="#DejaVuSerif-28" transform="translate(64.013672 0)"/>
      <use xlink:href="#DejaVuSerif-72" transform="translate(103.027344 0)"/>
      <use xlink:href="#DejaVuSerif-29" transform="translate(150.830078 0)"/>
     </g>
    </g>
   </g>
   <g id="line2d_33">
    <path d="M 77.464347 342.8775 
L 120.314714 342.867418 
L 122.835323 329.119292 
L 125.355933 160.465697 
L 127.876543 43.203195 
L 130.397153 189.541612 
L 132.917763 311.613585 
L 135.438373 327.980088 
L 137.958982 332.852703 
L 140.479592 335.448999 
L 143.000202 336.040314 
L 148.041422 335.484486 
L 150.562032 334.571228 
L 153.082641 331.821299 
L 155.603251 327.659703 
L 158.123861 323.274035 
L 160.644471 319.899801 
L 163.165081 319.080214 
L 165.68569 320.667383 
L 168.2063 324.070234 
L 170.72691 327.884385 
L 173.24752 329.280825 
L 175.76813 319.197334 
L 178.28874 281.239277 
L 180.809349 225.009974 
L 183.329959 206.797701 
L 185.850569 250.948909 
L 188.371179 306.559449 
L 190.891789 333.49986 
L 193.412399 339.698689 
L 195.933008 340.066107 
L 198.453618 339.509157 
L 200.974228 338.727881 
L 203.494838 337.675511 
L 211.056667 333.76321 
L 213.577277 332.763747 
L 218.618497 331.601964 
L 221.139107 330.521169 
L 223.659716 328.931516 
L 226.180326 327.030578 
L 231.221546 322.855875 
L 233.742156 321.095682 
L 236.262766 319.873027 
L 238.783375 318.845761 
L 241.303985 318.083972 
L 243.824595 317.795519 
L 246.345205 317.690806 
L 251.386425 317.869181 
L 256.427644 318.199732 
L 261.468864 318.300349 
L 276.592523 317.94892 
L 279.113133 317.680856 
L 284.154352 316.77466 
L 296.757401 314.369886 
L 299.278011 314.279304 
L 301.798621 314.520849 
L 306.839841 315.52141 
L 311.88106 316.643865 
L 314.40167 317.337616 
L 321.9635 318.74926 
L 324.484109 319.023849 
L 329.525329 319.305094 
L 337.087159 319.241345 
L 347.169598 318.86693 
L 354.731427 318.571845 
L 367.334476 318.277654 
L 377.416916 318.264168 
L 387.499355 318.394035 
L 397.581794 318.633464 
L 415.226063 318.823551 
L 420.267283 318.902753 
L 435.390942 318.788346 
L 442.952771 318.617646 
L 455.55582 318.378776 
L 478.241309 317.83867 
L 483.282528 317.786208 
L 483.282528 317.786208 
" clip-path="url(#pd0ca7f5b17)" style="fill: none; stroke: #2f974e; stroke-width: 2; stroke-linecap: round"/>
   </g>
   <g id="line2d_34">
    <path d="M 77.464347 342.8775 
L 120.314714 342.870779 
L 122.835323 333.111473 
L 125.355933 187.531668 
L 127.876543 51.988493 
L 130.397153 163.79714 
L 132.917763 298.01524 
L 135.438373 323.957751 
L 137.958982 328.27397 
L 140.479592 330.162318 
L 143.000202 331.323436 
L 145.520812 331.5902 
L 148.041422 330.697319 
L 150.562032 328.036127 
L 153.082641 324.132212 
L 155.603251 319.934512 
L 158.123861 316.607355 
L 160.644471 315.632453 
L 163.165081 317.21592 
L 165.68569 320.794469 
L 168.2063 325.232897 
L 170.72691 329.284009 
L 173.24752 331.001829 
L 175.76813 321.369245 
L 178.28874 284.006766 
L 180.809349 230.154301 
L 183.329959 214.782555 
L 185.850569 256.651296 
L 188.371179 306.920348 
L 190.891789 331.977221 
L 193.412399 339.216634 
L 195.933008 340.513962 
L 198.453618 340.42129 
L 203.494838 339.676954 
L 208.536057 338.536264 
L 211.056667 337.627114 
L 216.097887 335.234644 
L 218.618497 333.775268 
L 221.139107 331.962228 
L 223.659716 329.852544 
L 226.180326 327.360613 
L 228.700936 324.544584 
L 231.221546 321.954205 
L 233.742156 319.867237 
L 236.262766 318.142892 
L 238.783375 317.101223 
L 241.303985 316.688754 
L 243.824595 316.468469 
L 246.345205 316.535063 
L 251.386425 316.955684 
L 256.427644 317.480395 
L 269.030693 318.45172 
L 274.071913 318.646615 
L 276.592523 318.650381 
L 279.113133 318.519731 
L 281.633742 318.182313 
L 284.154352 317.677472 
L 286.674962 317.025307 
L 294.236792 314.593763 
L 296.757401 314.017815 
L 299.278011 313.835596 
L 301.798621 314.011039 
L 304.319231 314.472058 
L 309.36045 315.863274 
L 314.40167 317.424016 
L 319.44289 318.441286 
L 321.9635 318.839994 
L 327.004719 319.184869 
L 329.525329 319.2558 
L 339.607768 318.941024 
L 364.813867 318.140304 
L 382.458135 318.31337 
L 405.143624 318.762797 
L 417.746673 318.87789 
L 425.308502 318.889251 
L 437.911552 318.681886 
L 447.993991 318.544991 
L 455.55582 318.397959 
L 478.241309 317.951484 
L 483.282528 317.887446 
L 483.282528 317.887446 
" clip-path="url(#pd0ca7f5b17)" style="fill: none; stroke: #d92523; stroke-width: 2; stroke-linecap: round"/>
   </g>
   <g id="line2d_35">
    <path d="M 77.464347 342.8775 
L 120.314714 342.864058 
L 122.835323 319.325054 
L 125.355933 132.458651 
L 127.876543 40.4775 
L 130.397153 218.781253 
L 132.917763 334.106249 
L 135.438373 342.674887 
L 137.958982 342.870046 
L 140.479592 342.871169 
L 143.000202 342.742204 
L 145.520812 342.416484 
L 148.041422 341.623043 
L 150.562032 339.878453 
L 153.082641 336.90218 
L 158.123861 330.012172 
L 160.644471 326.992304 
L 163.165081 325.150938 
L 165.68569 324.960973 
L 168.2063 326.469652 
L 170.72691 328.168501 
L 173.24752 328.046232 
L 175.76813 315.734996 
L 178.28874 274.729226 
L 180.809349 219.275648 
L 183.329959 203.887417 
L 185.850569 249.144581 
L 188.371179 305.050759 
L 190.891789 331.663495 
L 193.412399 337.291375 
L 195.933008 337.551686 
L 198.453618 337.233595 
L 203.494838 335.92998 
L 206.015448 335.592583 
L 208.536057 335.006766 
L 213.577277 333.261702 
L 216.097887 332.456263 
L 226.180326 327.789069 
L 228.700936 326.330657 
L 231.221546 325.013367 
L 233.742156 324.063304 
L 238.783375 321.992646 
L 243.824595 320.810883 
L 246.345205 320.301426 
L 248.865815 319.957184 
L 253.907034 319.761161 
L 263.989474 318.931146 
L 269.030693 318.018289 
L 271.551303 317.904867 
L 274.071913 317.397526 
L 276.592523 316.752736 
L 291.716182 314.741189 
L 294.236792 314.314357 
L 296.757401 314.136885 
L 304.319231 314.095386 
L 306.839841 314.646341 
L 311.88106 315.56095 
L 314.40167 316.201751 
L 316.92228 316.507314 
L 319.44289 316.964567 
L 321.9635 317.543599 
L 324.484109 317.838512 
L 329.525329 318.23333 
L 332.045939 318.446149 
L 337.087159 318.604183 
L 339.607768 318.783121 
L 342.128378 318.516623 
L 344.648988 318.368459 
L 347.169598 318.415888 
L 357.252037 318.259904 
L 384.978745 318.460071 
L 390.019965 318.495234 
L 392.540575 318.424828 
L 400.102404 318.549373 
L 400.102404 318.549373 
" clip-path="url(#pd0ca7f5b17)" style="fill: none; stroke: #2e7ebc; stroke-width: 2; stroke-linecap: round"/>
   </g>
   <g id="patch_3">
    <path d="M 47.173438 357.9975 
L 47.173438 25.3575 
" style="fill: none; stroke: #262626; stroke-width: 1.25; stroke-linejoin: miter; stroke-linecap: square"/>
   </g>
   <g id="patch_4">
    <path d="M 57.173438 367.9975 
L 503.573437 367.9975 
" style="fill: none; stroke: #262626; stroke-width: 1.25; stroke-linejoin: miter; stroke-linecap: square"/>
   </g>
   <g id="text_19">
    <!-- 1.02 -->
    <g style="fill: #2f974e" transform="translate(128.970293 33.203195) scale(0.08 -0.08)">
     <defs>
      <path id="DejaVuSerif-2e" d="M 603 325 
Q 603 500 722 622 
Q 841 744 1019 744 
Q 1191 744 1312 622 
Q 1434 500 1434 325 
Q 1434 153 1312 31 
Q 1191 -91 1019 -91 
Q 841 -91 722 29 
Q 603 150 603 325 
z
" transform="scale(0.015625)"/>
     </defs>
     <use xlink:href="#DejaVuSerif-31"/>
     <use xlink:href="#DejaVuSerif-2e" transform="translate(63.623047 0)"/>
     <use xlink:href="#DejaVuSerif-30" transform="translate(95.410156 0)"/>
     <use xlink:href="#DejaVuSerif-32" transform="translate(159.033203 0)"/>
    </g>
   </g>
   <g id="text_20">
    <!-- 1.73 -->
    <g style="fill: #2f974e" transform="translate(164.258831 309.080214) scale(0.08 -0.08)">
     <use xlink:href="#DejaVuSerif-31"/>
     <use xlink:href="#DejaVuSerif-2e" transform="translate(63.623047 0)"/>
     <use xlink:href="#DejaVuSerif-37" transform="translate(95.410156 0)"/>
     <use xlink:href="#DejaVuSerif-33" transform="translate(159.033203 0)"/>
    </g>
   </g>
   <g id="text_21">
    <!-- 2.12 -->
    <g style="fill: #2f974e" transform="translate(184.423709 196.797701) scale(0.08 -0.08)">
     <use xlink:href="#DejaVuSerif-32"/>
     <use xlink:href="#DejaVuSerif-2e" transform="translate(63.623047 0)"/>
     <use xlink:href="#DejaVuSerif-31" transform="translate(95.410156 0)"/>
     <use xlink:href="#DejaVuSerif-32" transform="translate(159.033203 0)"/>
    </g>
   </g>
   <g id="text_22">
    <!-- 4.43 -->
    <g style="fill: #2f974e" transform="translate(300.371761 304.279304) scale(0.08 -0.08)">
     <use xlink:href="#DejaVuSerif-34"/>
     <use xlink:href="#DejaVuSerif-2e" transform="translate(63.623047 0)"/>
     <use xlink:href="#DejaVuSerif-34" transform="translate(95.410156 0)"/>
     <use xlink:href="#DejaVuSerif-33" transform="translate(159.033203 0)"/>
    </g>
   </g>
   <g id="text_23">
    <!-- 1.02 -->
    <g style="fill: #d92523" transform="translate(128.970293 41.988493) scale(0.08 -0.08)">
     <use xlink:href="#DejaVuSerif-31"/>
     <use xlink:href="#DejaVuSerif-2e" transform="translate(63.623047 0)"/>
     <use xlink:href="#DejaVuSerif-30" transform="translate(95.410156 0)"/>
     <use xlink:href="#DejaVuSerif-32" transform="translate(159.033203 0)"/>
    </g>
   </g>
   <g id="text_24">
    <!-- 1.68 -->
    <g style="fill: #d92523" transform="translate(161.738221 305.632453) scale(0.08 -0.08)">
     <use xlink:href="#DejaVuSerif-31"/>
     <use xlink:href="#DejaVuSerif-2e" transform="translate(63.623047 0)"/>
     <use xlink:href="#DejaVuSerif-36" transform="translate(95.410156 0)"/>
     <use xlink:href="#DejaVuSerif-38" transform="translate(159.033203 0)"/>
    </g>
   </g>
   <g id="text_25">
    <!-- 2.12 -->
    <g style="fill: #d92523" transform="translate(184.423709 204.782555) scale(0.08 -0.08)">
     <use xlink:href="#DejaVuSerif-32"/>
     <use xlink:href="#DejaVuSerif-2e" transform="translate(63.623047 0)"/>
     <use xlink:href="#DejaVuSerif-31" transform="translate(95.410156 0)"/>
     <use xlink:href="#DejaVuSerif-32" transform="translate(159.033203 0)"/>
    </g>
   </g>
   <g id="text_26">
    <!-- 3.33 -->
    <g style="fill: #d92523" transform="translate(244.918345 306.468469) scale(0.08 -0.08)">
     <use xlink:href="#DejaVuSerif-33"/>
     <use xlink:href="#DejaVuSerif-2e" transform="translate(63.623047 0)"/>
     <use xlink:href="#DejaVuSerif-33" transform="translate(95.410156 0)"/>
     <use xlink:href="#DejaVuSerif-33" transform="translate(159.033203 0)"/>
    </g>
   </g>
   <g id="text_27">
    <!-- 4.43 -->
    <g style="fill: #d92523" transform="translate(300.371761 303.835596) scale(0.08 -0.08)">
     <use xlink:href="#DejaVuSerif-34"/>
     <use xlink:href="#DejaVuSerif-2e" transform="translate(63.623047 0)"/>
     <use xlink:href="#DejaVuSerif-34" transform="translate(95.410156 0)"/>
     <use xlink:href="#DejaVuSerif-33" transform="translate(159.033203 0)"/>
    </g>
   </g>
   <g id="text_28">
    <!-- 1.02 -->
    <g style="fill: #2e7ebc" transform="translate(128.970293 30.4775) scale(0.08 -0.08)">
     <use xlink:href="#DejaVuSerif-31"/>
     <use xlink:href="#DejaVuSerif-2e" transform="translate(63.623047 0)"/>
     <use xlink:href="#DejaVuSerif-30" transform="translate(95.410156 0)"/>
     <use xlink:href="#DejaVuSerif-32" transform="translate(159.033203 0)"/>
    </g>
   </g>
   <g id="text_29">
    <!-- 1.77 -->
    <g style="fill: #2e7ebc" transform="translate(166.77944 314.960973) scale(0.08 -0.08)">
     <use xlink:href="#DejaVuSerif-31"/>
     <use xlink:href="#DejaVuSerif-2e" transform="translate(63.623047 0)"/>
     <use xlink:href="#DejaVuSerif-37" transform="translate(95.410156 0)"/>
     <use xlink:href="#DejaVuSerif-37" transform="translate(159.033203 0)"/>
    </g>
   </g>
   <g id="text_30">
    <!-- 2.12 -->
    <g style="fill: #2e7ebc" transform="translate(184.423709 193.887417) scale(0.08 -0.08)">
     <use xlink:href="#DejaVuSerif-32"/>
     <use xlink:href="#DejaVuSerif-2e" transform="translate(63.623047 0)"/>
     <use xlink:href="#DejaVuSerif-31" transform="translate(95.410156 0)"/>
     <use xlink:href="#DejaVuSerif-32" transform="translate(159.033203 0)"/>
    </g>
   </g>
   <g id="text_31">
    <!-- Radial Distribution Function (RDF) for H-O pairs -->
    <g style="fill: #262626" transform="translate(81.915938 19.3575) scale(0.16 -0.16)">
     <defs>
      <path id="DejaVuSerif-52" d="M 3066 2316 
Q 3284 2256 3442 2114 
Q 3600 1972 3725 1716 
L 4403 331 
L 4972 331 
L 4972 0 
L 3872 0 
L 3144 1484 
Q 2934 1916 2759 2042 
Q 2584 2169 2278 2169 
L 1581 2169 
L 1581 331 
L 2241 331 
L 2241 0 
L 353 0 
L 353 331 
L 947 331 
L 947 4331 
L 353 4331 
L 353 4666 
L 2719 4666 
Q 3400 4666 3770 4341 
Q 4141 4016 4141 3419 
Q 4141 2938 3870 2661 
Q 3600 2384 3066 2316 
z
M 1581 2503 
L 2503 2503 
Q 2975 2503 3200 2726 
Q 3425 2950 3425 3419 
Q 3425 3888 3200 4109 
Q 2975 4331 2503 4331 
L 1581 4331 
L 1581 2503 
z
" transform="scale(0.015625)"/>
      <path id="DejaVuSerif-61" d="M 2547 1044 
L 2547 1747 
L 1806 1747 
Q 1378 1747 1168 1562 
Q 959 1378 959 997 
Q 959 650 1171 447 
Q 1384 244 1747 244 
Q 2106 244 2326 466 
Q 2547 688 2547 1044 
z
M 3122 2075 
L 3122 331 
L 3634 331 
L 3634 0 
L 2547 0 
L 2547 359 
Q 2356 128 2106 18 
Q 1856 -91 1522 -91 
Q 969 -91 644 203 
Q 319 497 319 997 
Q 319 1513 691 1797 
Q 1063 2081 1741 2081 
L 2547 2081 
L 2547 2309 
Q 2547 2688 2317 2895 
Q 2088 3103 1672 3103 
Q 1328 3103 1125 2947 
Q 922 2791 872 2484 
L 575 2484 
L 575 3156 
Q 875 3284 1158 3348 
Q 1441 3413 1709 3413 
Q 2400 3413 2761 3070 
Q 3122 2728 3122 2075 
z
" transform="scale(0.015625)"/>
      <path id="DejaVuSerif-64" d="M 3359 331 
L 3909 331 
L 3909 0 
L 2784 0 
L 2784 519 
Q 2616 206 2355 57 
Q 2094 -91 1709 -91 
Q 1097 -91 708 395 
Q 319 881 319 1663 
Q 319 2444 706 2928 
Q 1094 3413 1709 3413 
Q 2094 3413 2355 3264 
Q 2616 3116 2784 2803 
L 2784 4531 
L 2241 4531 
L 2241 4863 
L 3359 4863 
L 3359 331 
z
M 2784 1497 
L 2784 1825 
Q 2784 2422 2554 2737 
Q 2325 3053 1888 3053 
Q 1444 3053 1217 2703 
Q 991 2353 991 1663 
Q 991 975 1217 622 
Q 1444 269 1888 269 
Q 2325 269 2554 583 
Q 2784 897 2784 1497 
z
" transform="scale(0.015625)"/>
      <path id="DejaVuSerif-69" d="M 622 4353 
Q 622 4497 726 4603 
Q 831 4709 978 4709 
Q 1122 4709 1226 4603 
Q 1331 4497 1331 4353 
Q 1331 4206 1228 4103 
Q 1125 4000 978 4000 
Q 831 4000 726 4103 
Q 622 4206 622 4353 
z
M 1356 331 
L 1900 331 
L 1900 0 
L 231 0 
L 231 331 
L 781 331 
L 781 2988 
L 231 2988 
L 231 3322 
L 1356 3322 
L 1356 331 
z
" transform="scale(0.015625)"/>
      <path id="DejaVuSerif-6c" d="M 1313 331 
L 1856 331 
L 1856 0 
L 184 0 
L 184 331 
L 738 331 
L 738 4531 
L 184 4531 
L 184 4863 
L 1313 4863 
L 1313 331 
z
" transform="scale(0.015625)"/>
      <path id="DejaVuSerif-44" d="M 1581 331 
L 2163 331 
Q 3072 331 3558 850 
Q 4044 1369 4044 2338 
Q 4044 3306 3559 3818 
Q 3075 4331 2163 4331 
L 1581 4331 
L 1581 331 
z
M 353 0 
L 353 331 
L 947 331 
L 947 4331 
L 353 4331 
L 353 4666 
L 2209 4666 
Q 3416 4666 4089 4050 
Q 4763 3434 4763 2338 
Q 4763 1238 4088 619 
Q 3413 0 2209 0 
L 353 0 
z
" transform="scale(0.015625)"/>
      <path id="DejaVuSerif-73" d="M 359 184 
L 359 959 
L 691 959 
Q 703 588 923 403 
Q 1144 219 1575 219 
Q 1963 219 2166 364 
Q 2369 509 2369 788 
Q 2369 1006 2220 1140 
Q 2072 1275 1594 1428 
L 1178 1569 
Q 750 1706 558 1912 
Q 366 2119 366 2438 
Q 366 2894 700 3153 
Q 1034 3413 1625 3413 
Q 1888 3413 2178 3344 
Q 2469 3275 2778 3144 
L 2778 2419 
L 2447 2419 
Q 2434 2741 2221 2922 
Q 2009 3103 1644 3103 
Q 1281 3103 1095 2975 
Q 909 2847 909 2591 
Q 909 2381 1050 2254 
Q 1191 2128 1613 1997 
L 2069 1856 
Q 2541 1709 2748 1489 
Q 2956 1269 2956 922 
Q 2956 450 2595 179 
Q 2234 -91 1600 -91 
Q 1278 -91 972 -22 
Q 666 47 359 184 
z
" transform="scale(0.015625)"/>
      <path id="DejaVuSerif-74" d="M 691 2988 
L 184 2988 
L 184 3322 
L 691 3322 
L 691 4353 
L 1269 4353 
L 1269 3322 
L 2350 3322 
L 2350 2988 
L 1269 2988 
L 1269 878 
Q 1269 456 1350 337 
Q 1431 219 1650 219 
Q 1875 219 1978 351 
Q 2081 484 2088 781 
L 2522 781 
Q 2497 328 2275 118 
Q 2053 -91 1600 -91 
Q 1103 -91 897 129 
Q 691 350 691 878 
L 691 2988 
z
" transform="scale(0.015625)"/>
      <path id="DejaVuSerif-62" d="M 738 331 
L 738 4531 
L 184 4531 
L 184 4863 
L 1313 4863 
L 1313 2803 
Q 1481 3116 1742 3264 
Q 2003 3413 2388 3413 
Q 3000 3413 3387 2928 
Q 3775 2444 3775 1663 
Q 3775 881 3387 395 
Q 3000 -91 2388 -91 
Q 2003 -91 1742 57 
Q 1481 206 1313 519 
L 1313 0 
L 184 0 
L 184 331 
L 738 331 
z
M 1313 1497 
Q 1313 897 1542 583 
Q 1772 269 2209 269 
Q 2650 269 2876 622 
Q 3103 975 3103 1663 
Q 3103 2353 2876 2703 
Q 2650 3053 2209 3053 
Q 1772 3053 1542 2737 
Q 1313 2422 1313 1825 
L 1313 1497 
z
" transform="scale(0.015625)"/>
      <path id="DejaVuSerif-75" d="M 2266 3322 
L 3341 3322 
L 3341 331 
L 3884 331 
L 3884 0 
L 2766 0 
L 2766 588 
Q 2606 256 2353 82 
Q 2100 -91 1766 -91 
Q 1213 -91 952 223 
Q 691 538 691 1209 
L 691 2988 
L 172 2988 
L 172 3322 
L 1269 3322 
L 1269 1388 
Q 1269 781 1417 556 
Q 1566 331 1947 331 
Q 2347 331 2556 625 
Q 2766 919 2766 1478 
L 2766 2988 
L 2266 2988 
L 2266 3322 
z
" transform="scale(0.015625)"/>
      <path id="DejaVuSerif-6f" d="M 1925 219 
Q 2388 219 2623 584 
Q 2859 950 2859 1663 
Q 2859 2375 2623 2739 
Q 2388 3103 1925 3103 
Q 1463 3103 1227 2739 
Q 991 2375 991 1663 
Q 991 950 1228 584 
Q 1466 219 1925 219 
z
M 1925 -91 
Q 1200 -91 759 389 
Q 319 869 319 1663 
Q 319 2456 758 2934 
Q 1197 3413 1925 3413 
Q 2653 3413 3092 2934 
Q 3531 2456 3531 1663 
Q 3531 869 3092 389 
Q 2653 -91 1925 -91 
z
" transform="scale(0.015625)"/>
      <path id="DejaVuSerif-6e" d="M 263 0 
L 263 331 
L 781 331 
L 781 2988 
L 231 2988 
L 231 3322 
L 1356 3322 
L 1356 2731 
Q 1516 3069 1770 3241 
Q 2025 3413 2363 3413 
Q 2913 3413 3172 3097 
Q 3431 2781 3431 2113 
L 3431 331 
L 3944 331 
L 3944 0 
L 2356 0 
L 2356 331 
L 2853 331 
L 2853 1931 
Q 2853 2541 2703 2767 
Q 2553 2994 2175 2994 
Q 1775 2994 1565 2701 
Q 1356 2409 1356 1850 
L 1356 331 
L 1856 331 
L 1856 0 
L 263 0 
z
" transform="scale(0.015625)"/>
      <path id="DejaVuSerif-46" d="M 353 0 
L 353 331 
L 947 331 
L 947 4331 
L 353 4331 
L 353 4666 
L 4172 4666 
L 4172 3628 
L 3788 3628 
L 3788 4281 
L 1581 4281 
L 1581 2719 
L 3175 2719 
L 3175 3303 
L 3559 3303 
L 3559 1753 
L 3175 1753 
L 3175 2338 
L 1581 2338 
L 1581 331 
L 2328 331 
L 2328 0 
L 353 0 
z
" transform="scale(0.015625)"/>
      <path id="DejaVuSerif-63" d="M 3291 997 
Q 3169 466 2822 187 
Q 2475 -91 1925 -91 
Q 1200 -91 759 389 
Q 319 869 319 1663 
Q 319 2459 759 2936 
Q 1200 3413 1925 3413 
Q 2241 3413 2553 3339 
Q 2866 3266 3181 3116 
L 3181 2266 
L 2847 2266 
Q 2781 2703 2561 2903 
Q 2341 3103 1931 3103 
Q 1466 3103 1228 2742 
Q 991 2381 991 1663 
Q 991 944 1227 581 
Q 1463 219 1931 219 
Q 2303 219 2525 412 
Q 2747 606 2828 997 
L 3291 997 
z
" transform="scale(0.015625)"/>
      <path id="DejaVuSerif-66" d="M 2753 4078 
L 2450 4078 
Q 2447 4313 2317 4434 
Q 2188 4556 1941 4556 
Q 1619 4556 1487 4379 
Q 1356 4203 1356 3750 
L 1356 3322 
L 2284 3322 
L 2284 2988 
L 1356 2988 
L 1356 331 
L 2094 331 
L 2094 0 
L 231 0 
L 231 331 
L 781 331 
L 781 2988 
L 231 2988 
L 231 3322 
L 781 3322 
L 781 3738 
Q 781 4294 1070 4578 
Q 1359 4863 1919 4863 
Q 2128 4863 2337 4825 
Q 2547 4788 2753 4709 
L 2753 4078 
z
" transform="scale(0.015625)"/>
      <path id="DejaVuSerif-48" d="M 353 0 
L 353 331 
L 947 331 
L 947 4331 
L 353 4331 
L 353 4666 
L 2175 4666 
L 2175 4331 
L 1581 4331 
L 1581 2719 
L 4000 2719 
L 4000 4331 
L 3406 4331 
L 3406 4666 
L 5228 4666 
L 5228 4331 
L 4634 4331 
L 4634 331 
L 5228 331 
L 5228 0 
L 3406 0 
L 3406 331 
L 4000 331 
L 4000 2338 
L 1581 2338 
L 1581 331 
L 2175 331 
L 2175 0 
L 353 0 
z
" transform="scale(0.015625)"/>
      <path id="DejaVuSerif-2d" d="M 281 1959 
L 1881 1959 
L 1881 1472 
L 281 1472 
L 281 1959 
z
" transform="scale(0.015625)"/>
      <path id="DejaVuSerif-4f" d="M 2625 244 
Q 3391 244 3781 770 
Q 4172 1297 4172 2328 
Q 4172 3363 3781 3889 
Q 3391 4416 2625 4416 
Q 1856 4416 1465 3889 
Q 1075 3363 1075 2328 
Q 1075 1297 1465 770 
Q 1856 244 2625 244 
z
M 2625 -91 
Q 2150 -91 1751 65 
Q 1353 222 1050 525 
Q 700 875 529 1319 
Q 359 1763 359 2328 
Q 359 2894 529 3339 
Q 700 3784 1050 4134 
Q 1356 4441 1750 4595 
Q 2144 4750 2625 4750 
Q 3641 4750 4266 4084 
Q 4891 3419 4891 2328 
Q 4891 1769 4719 1320 
Q 4547 872 4197 525 
Q 3891 219 3497 64 
Q 3103 -91 2625 -91 
z
" transform="scale(0.015625)"/>
      <path id="DejaVuSerif-70" d="M 1313 1825 
L 1313 1497 
Q 1313 897 1542 583 
Q 1772 269 2209 269 
Q 2650 269 2876 622 
Q 3103 975 3103 1663 
Q 3103 2353 2876 2703 
Q 2650 3053 2209 3053 
Q 1772 3053 1542 2737 
Q 1313 2422 1313 1825 
z
M 738 2988 
L 184 2988 
L 184 3322 
L 1313 3322 
L 1313 2803 
Q 1481 3116 1742 3264 
Q 2003 3413 2388 3413 
Q 3000 3413 3387 2928 
Q 3775 2444 3775 1663 
Q 3775 881 3387 395 
Q 3000 -91 2388 -91 
Q 2003 -91 1742 57 
Q 1481 206 1313 519 
L 1313 -997 
L 1856 -997 
L 1856 -1331 
L 184 -1331 
L 184 -997 
L 738 -997 
L 738 2988 
z
" transform="scale(0.015625)"/>
     </defs>
     <use xlink:href="#DejaVuSerif-52"/>
     <use xlink:href="#DejaVuSerif-61" transform="translate(77.542969 0)"/>
     <use xlink:href="#DejaVuSerif-64" transform="translate(137.162109 0)"/>
     <use xlink:href="#DejaVuSerif-69" transform="translate(201.175781 0)"/>
     <use xlink:href="#DejaVuSerif-61" transform="translate(233.158203 0)"/>
     <use xlink:href="#DejaVuSerif-6c" transform="translate(292.777344 0)"/>
     <use xlink:href="#DejaVuSerif-20" transform="translate(324.759766 0)"/>
     <use xlink:href="#DejaVuSerif-44" transform="translate(356.546875 0)"/>
     <use xlink:href="#DejaVuSerif-69" transform="translate(436.722656 0)"/>
     <use xlink:href="#DejaVuSerif-73" transform="translate(468.705078 0)"/>
     <use xlink:href="#DejaVuSerif-74" transform="translate(520.023438 0)"/>
     <use xlink:href="#DejaVuSerif-72" transform="translate(560.208984 0)"/>
     <use xlink:href="#DejaVuSerif-69" transform="translate(608.011719 0)"/>
     <use xlink:href="#DejaVuSerif-62" transform="translate(639.994141 0)"/>
     <use xlink:href="#DejaVuSerif-75" transform="translate(704.007812 0)"/>
     <use xlink:href="#DejaVuSerif-74" transform="translate(768.412109 0)"/>
     <use xlink:href="#DejaVuSerif-69" transform="translate(808.597656 0)"/>
     <use xlink:href="#DejaVuSerif-6f" transform="translate(840.580078 0)"/>
     <use xlink:href="#DejaVuSerif-6e" transform="translate(900.785156 0)"/>
     <use xlink:href="#DejaVuSerif-20" transform="translate(965.189453 0)"/>
     <use xlink:href="#DejaVuSerif-46" transform="translate(996.976562 0)"/>
     <use xlink:href="#DejaVuSerif-75" transform="translate(1066.361328 0)"/>
     <use xlink:href="#DejaVuSerif-6e" transform="translate(1130.765625 0)"/>
     <use xlink:href="#DejaVuSerif-63" transform="translate(1195.169922 0)"/>
     <use xlink:href="#DejaVuSerif-74" transform="translate(1251.175781 0)"/>
     <use xlink:href="#DejaVuSerif-69" transform="translate(1291.361328 0)"/>
     <use xlink:href="#DejaVuSerif-6f" transform="translate(1323.34375 0)"/>
     <use xlink:href="#DejaVuSerif-6e" transform="translate(1383.548828 0)"/>
     <use xlink:href="#DejaVuSerif-20" transform="translate(1447.953125 0)"/>
     <use xlink:href="#DejaVuSerif-28" transform="translate(1479.740234 0)"/>
     <use xlink:href="#DejaVuSerif-52" transform="translate(1518.753906 0)"/>
     <use xlink:href="#DejaVuSerif-44" transform="translate(1594.046875 0)"/>
     <use xlink:href="#DejaVuSerif-46" transform="translate(1674.222656 0)"/>
     <use xlink:href="#DejaVuSerif-29" transform="translate(1743.607422 0)"/>
     <use xlink:href="#DejaVuSerif-20" transform="translate(1782.621094 0)"/>
     <use xlink:href="#DejaVuSerif-66" transform="translate(1814.408203 0)"/>
     <use xlink:href="#DejaVuSerif-6f" transform="translate(1851.419922 0)"/>
     <use xlink:href="#DejaVuSerif-72" transform="translate(1911.625 0)"/>
     <use xlink:href="#DejaVuSerif-20" transform="translate(1959.427734 0)"/>
     <use xlink:href="#DejaVuSerif-48" transform="translate(1991.214844 0)"/>
     <use xlink:href="#DejaVuSerif-2d" transform="translate(2078.421875 0)"/>
     <use xlink:href="#DejaVuSerif-4f" transform="translate(2112.210938 0)"/>
     <use xlink:href="#DejaVuSerif-20" transform="translate(2194.193359 0)"/>
     <use xlink:href="#DejaVuSerif-70" transform="translate(2225.980469 0)"/>
     <use xlink:href="#DejaVuSerif-61" transform="translate(2289.994141 0)"/>
     <use xlink:href="#DejaVuSerif-69" transform="translate(2349.613281 0)"/>
     <use xlink:href="#DejaVuSerif-72" transform="translate(2381.595703 0)"/>
     <use xlink:href="#DejaVuSerif-73" transform="translate(2429.398438 0)"/>
    </g>
   </g>
   <g id="legend_1">
    <g id="patch_5">
     <path d="M 387.081562 87.79875 
L 495.173437 87.79875 
Q 497.573437 87.79875 497.573437 85.39875 
L 497.573437 33.7575 
Q 497.573437 31.3575 495.173437 31.3575 
L 387.081562 31.3575 
Q 384.681562 31.3575 384.681562 33.7575 
L 384.681562 85.39875 
Q 384.681562 87.79875 387.081562 87.79875 
z
" style="fill: #ffffff; opacity: 0.8; stroke: #cccccc; stroke-linejoin: miter"/>
    </g>
    <g id="line2d_36">
     <path d="M 389.481562 41.075625 
L 401.481562 41.075625 
L 413.481562 41.075625 
" style="fill: none; stroke: #2f974e; stroke-width: 2; stroke-linecap: round"/>
    </g>
    <g id="text_32">
     <!-- RDF DFT -->
     <g style="fill: #262626" transform="translate(423.081562 45.275625) scale(0.12 -0.12)">
      <defs>
       <path id="DejaVuSerif-54" d="M 1222 0 
L 1222 331 
L 1819 331 
L 1819 4294 
L 447 4294 
L 447 3566 
L 63 3566 
L 63 4666 
L 4206 4666 
L 4206 3566 
L 3822 3566 
L 3822 4294 
L 2450 4294 
L 2450 331 
L 3047 331 
L 3047 0 
L 1222 0 
z
" transform="scale(0.015625)"/>
      </defs>
      <use xlink:href="#DejaVuSerif-52"/>
      <use xlink:href="#DejaVuSerif-44" transform="translate(75.292969 0)"/>
      <use xlink:href="#DejaVuSerif-46" transform="translate(155.46875 0)"/>
      <use xlink:href="#DejaVuSerif-20" transform="translate(224.853516 0)"/>
      <use xlink:href="#DejaVuSerif-44" transform="translate(256.640625 0)"/>
      <use xlink:href="#DejaVuSerif-46" transform="translate(336.816406 0)"/>
      <use xlink:href="#DejaVuSerif-54" transform="translate(406.201172 0)"/>
     </g>
    </g>
    <g id="line2d_37">
     <path d="M 389.481562 58.689375 
L 401.481562 58.689375 
L 413.481562 58.689375 
" style="fill: none; stroke: #d92523; stroke-width: 2; stroke-linecap: round"/>
    </g>
    <g id="text_33">
     <!-- RDF D3 -->
     <g style="fill: #262626" transform="translate(423.081562 62.889375) scale(0.12 -0.12)">
      <use xlink:href="#DejaVuSerif-52"/>
      <use xlink:href="#DejaVuSerif-44" transform="translate(75.292969 0)"/>
      <use xlink:href="#DejaVuSerif-46" transform="translate(155.46875 0)"/>
      <use xlink:href="#DejaVuSerif-20" transform="translate(224.853516 0)"/>
      <use xlink:href="#DejaVuSerif-44" transform="translate(256.640625 0)"/>
      <use xlink:href="#DejaVuSerif-33" transform="translate(336.816406 0)"/>
     </g>
    </g>
    <g id="line2d_38">
     <path d="M 389.481562 76.303125 
L 401.481562 76.303125 
L 413.481562 76.303125 
" style="fill: none; stroke: #2e7ebc; stroke-width: 2; stroke-linecap: round"/>
    </g>
    <g id="text_34">
     <!-- RDF MACE -->
     <g style="fill: #262626" transform="translate(423.081562 80.503125) scale(0.12 -0.12)">
      <defs>
       <path id="DejaVuSerif-4d" d="M 353 0 
L 353 331 
L 947 331 
L 947 4331 
L 319 4331 
L 319 4666 
L 1678 4666 
L 3316 1344 
L 4953 4666 
L 6228 4666 
L 6228 4331 
L 5606 4331 
L 5606 331 
L 6203 331 
L 6203 0 
L 4378 0 
L 4378 331 
L 4972 331 
L 4972 3938 
L 3372 684 
L 2931 684 
L 1331 3938 
L 1331 331 
L 1925 331 
L 1925 0 
L 353 0 
z
" transform="scale(0.015625)"/>
       <path id="DejaVuSerif-41" d="M 1281 1691 
L 2994 1691 
L 2138 3909 
L 1281 1691 
z
M -38 0 
L -38 331 
L 372 331 
L 2034 4666 
L 2559 4666 
L 4225 331 
L 4684 331 
L 4684 0 
L 2988 0 
L 2988 331 
L 3506 331 
L 3116 1356 
L 1153 1356 
L 763 331 
L 1275 331 
L 1275 0 
L -38 0 
z
" transform="scale(0.015625)"/>
       <path id="DejaVuSerif-43" d="M 4513 1234 
Q 4306 581 3820 245 
Q 3334 -91 2591 -91 
Q 2134 -91 1743 65 
Q 1353 222 1050 525 
Q 700 875 529 1320 
Q 359 1766 359 2328 
Q 359 3416 987 4083 
Q 1616 4750 2644 4750 
Q 3025 4750 3456 4650 
Q 3888 4550 4384 4347 
L 4384 3272 
L 4031 3272 
Q 3916 3859 3567 4137 
Q 3219 4416 2591 4416 
Q 1844 4416 1459 3886 
Q 1075 3356 1075 2328 
Q 1075 1303 1459 773 
Q 1844 244 2591 244 
Q 3113 244 3450 492 
Q 3788 741 3938 1234 
L 4513 1234 
z
" transform="scale(0.015625)"/>
       <path id="DejaVuSerif-45" d="M 353 0 
L 353 331 
L 947 331 
L 947 4331 
L 353 4331 
L 353 4666 
L 4109 4666 
L 4109 3628 
L 3725 3628 
L 3725 4281 
L 1581 4281 
L 1581 2719 
L 3109 2719 
L 3109 3303 
L 3494 3303 
L 3494 1753 
L 3109 1753 
L 3109 2338 
L 1581 2338 
L 1581 384 
L 3775 384 
L 3775 1038 
L 4159 1038 
L 4159 0 
L 353 0 
z
" transform="scale(0.015625)"/>
      </defs>
      <use xlink:href="#DejaVuSerif-52"/>
      <use xlink:href="#DejaVuSerif-44" transform="translate(75.292969 0)"/>
      <use xlink:href="#DejaVuSerif-46" transform="translate(155.46875 0)"/>
      <use xlink:href="#DejaVuSerif-20" transform="translate(224.853516 0)"/>
      <use xlink:href="#DejaVuSerif-4d" transform="translate(256.640625 0)"/>
      <use xlink:href="#DejaVuSerif-41" transform="translate(359.033203 0)"/>
      <use xlink:href="#DejaVuSerif-43" transform="translate(431.25 0)"/>
      <use xlink:href="#DejaVuSerif-45" transform="translate(507.763672 0)"/>
     </g>
    </g>
   </g>
  </g>
 </g>
 <defs>
  <clipPath id="pd0ca7f5b17">
   <rect x="57.173438" y="25.3575" width="446.4" height="332.64"/>
  </clipPath>
 </defs>
</svg>
